<svg xmlns="http://www.w3.org/2000/svg" xmlns:xlink="http://www.w3.org/1999/xlink" width="212" zoomAndPan="magnify" viewBox="0 0 159 159.750002" height="213" preserveAspectRatio="xMidYMid meet" version="1.0"><defs><g/><clipPath id="e49cda86e6"><path d="M 3.003906 6.253906 L 157.511719 6.253906 L 157.511719 159.5 L 3.003906 159.5 Z M 3.003906 6.253906 " clip-rule="nonzero"/></clipPath><clipPath id="ed84e43649"><path d="M 28.59375 31.84375 L 131.597656 31.84375 L 131.597656 134.847656 L 28.59375 134.847656 Z M 28.59375 31.84375 " clip-rule="nonzero"/></clipPath><clipPath id="9fb2175f6f"><path d="M 42.5625 69 L 47 69 L 47 111.996094 L 42.5625 111.996094 Z M 42.5625 69 " clip-rule="nonzero"/></clipPath><clipPath id="28a1ccfd72"><path d="M 43 107 L 75 107 L 75 111.996094 L 43 111.996094 Z M 43 107 " clip-rule="nonzero"/></clipPath><clipPath id="cede84b437"><path d="M 73 109 L 85 109 L 85 111.996094 L 73 111.996094 Z M 73 109 " clip-rule="nonzero"/></clipPath><clipPath id="a1b0eb58d2"><path d="M 83 105 L 85 105 L 85 111.996094 L 83 111.996094 Z M 83 105 " clip-rule="nonzero"/></clipPath><clipPath id="2c4f1bb7d6"><path d="M 83 108 L 114 108 L 114 111.996094 L 83 111.996094 Z M 83 108 " clip-rule="nonzero"/></clipPath></defs><g clip-path="url(#e49cda86e6)"><path fill="#000000" d="M 80.257812 160.761719 C 37.671875 160.761719 3.003906 126.089844 3.003906 83.507812 C 3.003906 40.921875 37.671875 6.253906 80.257812 6.253906 C 122.84375 6.253906 157.511719 40.921875 157.511719 83.507812 C 157.511719 126.089844 122.84375 160.761719 80.257812 160.761719 Z M 80.257812 7.394531 C 38.28125 7.394531 4.144531 41.53125 4.144531 83.507812 C 4.144531 125.480469 38.28125 159.617188 80.257812 159.617188 C 122.234375 159.617188 156.367188 125.480469 156.367188 83.507812 C 156.367188 41.53125 122.234375 7.394531 80.257812 7.394531 Z M 80.257812 7.394531 " fill-opacity="1" fill-rule="nonzero"/></g><g clip-path="url(#ed84e43649)"><path fill="#000000" d="M 80.09375 134.847656 C 51.707031 134.847656 28.59375 111.734375 28.59375 83.34375 C 28.59375 54.957031 51.707031 31.84375 80.09375 31.84375 C 108.484375 31.84375 131.597656 54.957031 131.597656 83.34375 C 131.597656 111.734375 108.484375 134.847656 80.09375 134.847656 Z M 80.09375 32.605469 C 52.113281 32.605469 29.355469 55.359375 29.355469 83.34375 C 29.355469 111.328125 52.113281 134.085938 80.09375 134.085938 C 108.078125 134.085938 130.835938 111.328125 130.835938 83.34375 C 130.835938 55.359375 108.078125 32.605469 80.09375 32.605469 Z M 80.09375 32.605469 " fill-opacity="1" fill-rule="nonzero"/></g><path fill="#7ed957" d="M 53.667969 62.734375 C 51.796875 62.316406 49.957031 62.65625 48.113281 63.058594 C 47.828125 63.121094 47.589844 63.433594 47.605469 63.726562 C 47.65625 64.609375 47.847656 65.457031 47.902344 66.328125 C 48.007812 68.09375 48.113281 69.863281 48.21875 71.628906 C 48.300781 73.050781 48.375 74.472656 48.511719 75.886719 C 48.652344 77.355469 48.632812 78.859375 48.660156 80.332031 C 48.683594 81.839844 48.6875 83.351562 48.683594 84.863281 C 48.664062 91.261719 48.488281 97.671875 48.898438 104.066406 C 48.925781 104.523438 49.289062 104.757812 49.71875 104.691406 C 49.808594 104.679688 49.898438 104.664062 49.988281 104.652344 C 50.035156 104.648438 50.082031 104.640625 50.128906 104.632812 C 50.328125 104.605469 49.988281 104.652344 50.15625 104.628906 C 50.355469 104.601562 50.558594 104.574219 50.757812 104.546875 C 50.90625 104.527344 50.59375 104.570312 50.746094 104.550781 C 50.789062 104.542969 50.835938 104.539062 50.878906 104.53125 C 50.972656 104.519531 51.0625 104.507812 51.15625 104.496094 C 51.386719 104.46875 51.613281 104.441406 51.84375 104.414062 C 52.371094 104.347656 52.902344 104.292969 53.433594 104.238281 C 56.378906 103.941406 59.339844 103.773438 62.300781 103.792969 C 65.59375 103.816406 68.921875 104.058594 72.113281 104.894531 C 73.550781 105.269531 74.859375 105.742188 76.125 106.46875 C 77.21875 107.09375 78.171875 107.90625 78.832031 108.929688 C 78.871094 108.992188 78.910156 109.058594 78.949219 109.125 C 79.417969 109.917969 80.65625 109.199219 80.1875 108.402344 C 78.707031 105.898438 76.027344 104.488281 73.324219 103.660156 C 70.132812 102.679688 66.734375 102.402344 63.414062 102.339844 C 58.765625 102.253906 54.023438 102.59375 49.449219 103.425781 C 49.421875 103.433594 49.398438 103.4375 49.375 103.441406 C 49.648438 103.648438 49.921875 103.859375 50.195312 104.066406 C 49.597656 98.113281 49.761719 92.113281 49.777344 86.140625 C 49.785156 83.132812 49.765625 80.125 49.636719 77.121094 C 49.566406 75.535156 49.414062 73.957031 49.3125 72.375 C 49.1875 70.484375 49.085938 68.59375 48.992188 66.703125 C 48.945312 65.710938 49.039062 64.71875 48.992188 63.726562 C 48.824219 63.949219 48.652344 64.171875 48.484375 64.394531 C 50.152344 64.042969 51.796875 63.847656 53.503906 63.929688 C 54.191406 63.964844 54.335938 62.886719 53.667969 62.734375 " fill-opacity="1" fill-rule="nonzero"/><path fill="#7ed957" d="M 80.179688 108.074219 C 79.960938 107.449219 79.8125 107.03125 79.457031 106.472656 C 79.097656 105.910156 78.699219 105.375 78.292969 104.847656 C 77.40625 103.707031 76.402344 102.65625 75.3125 101.707031 C 72.628906 99.367188 69.378906 97.742188 65.914062 96.933594 C 60.910156 95.761719 55.726562 96.359375 50.839844 97.769531 C 51.136719 98.066406 51.433594 98.363281 51.730469 98.660156 C 53.386719 92.867188 53.761719 86.800781 53.75 80.800781 C 53.742188 77.9375 53.578125 75.082031 53.546875 72.222656 C 53.519531 70.039062 53.859375 67.859375 54.078125 65.691406 C 54.492188 61.605469 54.671875 57.105469 51.832031 53.792969 C 51.664062 54.199219 51.496094 54.605469 51.328125 55.011719 C 56.523438 54.332031 61.847656 54.894531 66.800781 56.578125 C 71.507812 58.171875 75.792969 60.875 79.34375 64.34375 C 80.148438 65.128906 81.382812 63.894531 80.578125 63.109375 C 76.925781 59.546875 72.453125 56.914062 67.65625 55.21875 C 62.699219 53.46875 57.167969 52.757812 51.949219 53.5 C 51.679688 53.539062 51.410156 53.570312 51.136719 53.609375 C 50.558594 53.6875 50.515625 54.445312 50.820312 54.800781 C 52.199219 56.386719 52.640625 58.539062 52.757812 60.582031 C 52.890625 62.886719 52.609375 65.195312 52.359375 67.480469 C 52.242188 68.574219 52.125 69.667969 52.058594 70.765625 C 51.992188 71.898438 52.042969 73.019531 52.082031 74.152344 C 52.183594 77.152344 52.277344 80.152344 52.242188 83.15625 C 52.183594 88.25 51.742188 93.359375 50.335938 98.277344 C 50.1875 98.800781 50.699219 99.316406 51.226562 99.164062 C 55.800781 97.84375 60.710938 97.308594 65.398438 98.34375 C 68.761719 99.089844 71.886719 100.675781 74.507812 102.902344 C 75.539062 103.777344 76.484375 104.753906 77.351562 105.789062 C 77.746094 106.265625 78.070312 106.691406 78.414062 107.167969 C 78.769531 107.664062 79.09375 108.003906 79.5 108.46875 C 79.765625 108.769531 80.3125 108.453125 80.179688 108.074219 " fill-opacity="1" fill-rule="nonzero"/><path fill="#7ed957" d="M 80.0625 64.300781 L 80.113281 64.300781 C 80.214844 64.300781 80.214844 64.144531 80.113281 64.144531 C 79.996094 64.144531 79.878906 64.140625 79.761719 64.140625 C 79.65625 64.136719 79.65625 64.304688 79.761719 64.304688 C 79.796875 64.304688 79.832031 64.304688 79.855469 64.277344 C 79.882812 64.242188 79.882812 64.203125 79.855469 64.167969 C 79.832031 64.140625 79.796875 64.140625 79.761719 64.140625 C 79.65625 64.140625 79.65625 64.308594 79.761719 64.304688 C 79.878906 64.304688 79.996094 64.304688 80.113281 64.300781 C 80.214844 64.300781 80.214844 64.144531 80.113281 64.144531 L 80.0625 64.144531 C 79.964844 64.148438 79.964844 64.300781 80.0625 64.300781 " fill-opacity="1" fill-rule="nonzero"/><path fill="#7ed957" d="M 106.90625 64.832031 C 107.644531 64.78125 108.179688 64.476562 108.824219 64.167969 C 108.65625 64.25 108.871094 64.152344 108.910156 64.140625 C 108.988281 64.117188 109.066406 64.101562 109.148438 64.085938 C 109.003906 64.113281 109.285156 64.082031 109.316406 64.082031 C 109.429688 64.078125 109.542969 64.085938 109.65625 64.097656 C 110.367188 64.148438 111.082031 64.410156 111.753906 64.636719 C 111.582031 64.414062 111.414062 64.191406 111.242188 63.96875 C 111.203125 64.828125 111.304688 65.695312 111.261719 66.554688 C 111.171875 68.3125 111.082031 70.074219 110.96875 71.828125 C 110.878906 73.242188 110.796875 74.65625 110.652344 76.0625 C 110.503906 77.53125 110.519531 79.039062 110.488281 80.511719 C 110.457031 82.023438 110.449219 83.539062 110.449219 85.050781 C 110.445312 91.394531 110.679688 97.773438 110.039062 104.09375 C 110.308594 103.890625 110.578125 103.683594 110.847656 103.480469 C 106.726562 102.726562 102.476562 102.417969 98.296875 102.371094 C 94.917969 102.332031 91.507812 102.507812 88.191406 103.195312 C 85.382812 103.78125 82.441406 104.804688 80.394531 106.90625 C 79.953125 107.355469 79.570312 107.863281 79.246094 108.402344 C 78.769531 109.195312 80.007812 109.917969 80.480469 109.125 C 81.097656 108.097656 82.003906 107.304688 83.046875 106.667969 C 84.277344 105.917969 85.542969 105.457031 86.941406 105.0625 C 90.101562 104.167969 93.417969 103.910156 96.6875 103.839844 C 99.746094 103.773438 102.804688 103.925781 105.851562 104.191406 C 106.902344 104.28125 107.953125 104.394531 109.003906 104.519531 C 109.097656 104.53125 109.191406 104.542969 109.285156 104.554688 C 109.324219 104.5625 109.484375 104.582031 109.285156 104.554688 C 109.371094 104.566406 109.457031 104.578125 109.542969 104.589844 C 109.703125 104.605469 109.859375 104.625 110.019531 104.648438 C 110.128906 104.660156 110.238281 104.675781 110.347656 104.6875 C 110.164062 104.664062 110.300781 104.683594 110.421875 104.699219 C 110.453125 104.703125 110.480469 104.707031 110.507812 104.710938 C 110.933594 104.773438 111.285156 104.546875 111.316406 104.09375 C 111.707031 98.121094 111.585938 92.128906 111.550781 86.144531 C 111.53125 83.136719 111.539062 80.128906 111.664062 77.121094 C 111.730469 75.566406 111.878906 74.019531 111.976562 72.464844 C 112.09375 70.589844 112.203125 68.710938 112.316406 66.832031 C 112.375 65.867188 112.574219 64.945312 112.628906 63.96875 C 112.648438 63.648438 112.402344 63.394531 112.121094 63.300781 C 111.011719 62.917969 109.660156 62.4375 108.480469 62.800781 C 107.816406 63.007812 107.339844 63.492188 106.746094 63.636719 C 106.085938 63.796875 106.214844 64.878906 106.90625 64.832031 " fill-opacity="1" fill-rule="nonzero"/><path fill="#7ed957" d="M 80.140625 108.386719 C 80.296875 108.101562 80.558594 107.835938 80.691406 107.5625 C 80.855469 107.226562 81.054688 106.902344 81.273438 106.597656 C 81.714844 105.984375 82.195312 105.429688 82.738281 104.898438 C 83.996094 103.675781 85.476562 102.734375 87.007812 101.894531 C 90.488281 99.984375 94.441406 98.796875 98.371094 98.296875 C 101.832031 97.859375 105.691406 97.824219 108.949219 99.230469 C 109.496094 99.46875 110.207031 99.085938 110.011719 98.417969 C 108.324219 92.660156 108.007812 86.640625 108.0625 80.675781 C 108.089844 77.871094 108.304688 75.066406 108.296875 72.265625 C 108.289062 70.078125 107.941406 67.898438 107.722656 65.726562 C 107.378906 62.289062 107.042969 57.960938 109.519531 55.175781 C 109.964844 54.671875 109.625 54.035156 109.015625 53.957031 C 98.621094 52.574219 87.648438 55.78125 79.824219 62.828125 C 79.601562 63.027344 79.386719 63.230469 79.171875 63.433594 C 78.355469 64.210938 79.589844 65.441406 80.40625 64.667969 C 87.984375 57.457031 98.644531 54.058594 109.015625 55.382812 C 108.847656 54.976562 108.679688 54.570312 108.511719 54.164062 C 105.398438 57.707031 105.847656 62.609375 106.328125 66.964844 C 106.5625 69.097656 106.820312 71.214844 106.742188 73.359375 C 106.632812 76.335938 106.542969 79.316406 106.5625 82.296875 C 106.597656 87.84375 107.050781 93.457031 108.617188 98.800781 C 108.972656 98.527344 109.328125 98.257812 109.679688 97.984375 C 106.21875 96.488281 102.3125 96.339844 98.613281 96.773438 C 94.542969 97.25 90.523438 98.421875 86.871094 100.292969 C 85.074219 101.214844 83.363281 102.382812 81.914062 103.796875 C 81.273438 104.421875 80.699219 105.125 80.207031 105.875 C 79.988281 106.214844 79.808594 106.578125 79.628906 106.941406 C 79.460938 107.292969 79.433594 107.792969 79.382812 108.179688 C 79.328125 108.59375 79.953125 108.714844 80.140625 108.386719 " fill-opacity="1" fill-rule="nonzero"/><path fill="#7ed957" d="M 79.855469 64.382812 L 79.804688 64.382812 C 79.703125 64.382812 79.703125 64.539062 79.804688 64.539062 C 79.925781 64.542969 80.042969 64.542969 80.160156 64.542969 C 80.269531 64.546875 80.269531 64.378906 80.160156 64.378906 C 80.117188 64.378906 80.082031 64.382812 80.054688 64.421875 C 80.042969 64.441406 80.042969 64.480469 80.054688 64.5 C 80.082031 64.539062 80.117188 64.546875 80.160156 64.542969 C 80.269531 64.542969 80.269531 64.375 80.160156 64.378906 C 80.042969 64.378906 79.925781 64.382812 79.804688 64.382812 C 79.703125 64.382812 79.703125 64.539062 79.804688 64.539062 L 79.855469 64.539062 C 79.957031 64.539062 79.957031 64.382812 79.855469 64.382812 " fill-opacity="1" fill-rule="nonzero"/><path fill="#7ed957" d="M 79.644531 63.738281 C 79.230469 70.027344 80.320312 76.316406 80.4375 82.601562 C 80.496094 85.75 80.480469 88.917969 80.320312 92.058594 C 80.21875 94.15625 80.027344 96.253906 79.863281 98.34375 C 79.722656 100.148438 79.582031 101.953125 79.488281 103.757812 C 79.414062 105.195312 79.289062 106.652344 79.390625 108.089844 C 79.433594 108.667969 80.347656 108.65625 80.285156 108.089844 C 80.101562 106.367188 80.230469 104.597656 80.347656 102.875 C 80.484375 100.855469 80.652344 98.832031 80.894531 96.820312 C 81.566406 91.226562 81.613281 85.597656 81.273438 79.976562 C 80.945312 74.558594 80.398438 69.152344 80.027344 63.738281 C 80.011719 63.492188 79.660156 63.492188 79.644531 63.738281 " fill-opacity="1" fill-rule="nonzero"/><path fill="#7ed957" d="M 45.707031 68.320312 C 46.207031 68.472656 46.753906 68.445312 47.269531 68.46875 C 47.695312 68.484375 48.148438 68.511719 48.5625 68.417969 C 49.105469 68.296875 49.105469 67.449219 48.5625 67.324219 C 48.148438 67.230469 47.695312 67.257812 47.269531 67.277344 C 46.753906 67.296875 46.207031 67.269531 45.707031 67.421875 C 45.261719 67.558594 45.261719 68.183594 45.707031 68.320312 " fill-opacity="1" fill-rule="nonzero"/><path fill="#7ed957" d="M 112.125 68.636719 C 112.453125 68.664062 112.761719 68.5 112.945312 68.230469 C 112.824219 68.410156 112.6875 68.476562 112.480469 68.503906 C 112.527344 68.496094 112.574219 68.5 112.621094 68.5 C 112.921875 68.507812 113.191406 68.5625 113.464844 68.390625 C 113.855469 68.148438 113.855469 67.59375 113.464844 67.351562 C 113.128906 67.140625 112.496094 67.195312 112.132812 67.363281 C 112.015625 67.414062 111.933594 67.535156 111.871094 67.636719 C 111.988281 67.445312 111.941406 67.542969 111.890625 67.597656 C 111.847656 67.648438 111.792969 67.683594 111.75 67.730469 C 111.433594 68.09375 111.65625 68.597656 112.125 68.636719 " fill-opacity="1" fill-rule="nonzero"/><path fill="#7ed957" d="M 45.6875 67.871094 C 45.710938 69.230469 45.921875 70.582031 45.976562 71.941406 C 46.035156 73.375 46.015625 74.804688 45.960938 76.238281 C 45.851562 79.078125 45.582031 81.914062 45.433594 84.753906 C 45.105469 91.019531 45.328125 97.289062 45.273438 103.554688 C 45.261719 104.980469 45.328125 106.402344 45.324219 107.824219 C 45.320312 108.480469 46.34375 108.480469 46.339844 107.824219 C 46.3125 104.695312 45.988281 101.5625 46.136719 98.429688 C 46.210938 96.851562 46.128906 95.257812 46.128906 93.679688 C 46.128906 92.105469 46.140625 90.527344 46.167969 88.953125 C 46.273438 83.179688 47.015625 77.378906 46.601562 71.605469 C 46.511719 70.335938 46.421875 69.03125 45.96875 67.832031 C 45.914062 67.6875 45.683594 67.699219 45.6875 67.871094 " fill-opacity="1" fill-rule="nonzero"/><path fill="#7ed957" d="M 45.714844 108.511719 C 48.152344 108.832031 50.617188 108.675781 53.0625 108.511719 C 55.628906 108.339844 58.183594 108.066406 60.746094 107.839844 C 63.238281 107.617188 65.742188 107.4375 68.246094 107.410156 C 69.484375 107.398438 70.71875 107.429688 71.953125 107.511719 C 72.589844 107.554688 73.230469 107.613281 73.871094 107.683594 C 74.5 107.757812 75.09375 107.902344 75.71875 107.726562 C 76.128906 107.617188 76.15625 107.097656 75.832031 106.878906 C 75.335938 106.542969 74.796875 106.5 74.214844 106.425781 C 73.578125 106.34375 72.941406 106.285156 72.300781 106.234375 C 71.070312 106.140625 69.835938 106.117188 68.601562 106.128906 C 66.039062 106.144531 63.476562 106.34375 60.925781 106.578125 C 58.363281 106.816406 55.804688 107.097656 53.242188 107.328125 C 50.734375 107.550781 48.222656 107.625 45.714844 107.792969 C 45.242188 107.824219 45.265625 108.453125 45.714844 108.511719 " fill-opacity="1" fill-rule="nonzero"/><path fill="#7ed957" d="M 74.847656 107.0625 C 74.789062 107.550781 75.324219 108.117188 75.648438 108.429688 C 76.078125 108.839844 76.542969 109.21875 77.070312 109.5 C 78.183594 110.097656 79.484375 110.097656 80.699219 109.90625 C 81.796875 109.734375 82.835938 109.242188 83.671875 108.511719 C 84.339844 107.925781 85.191406 106.4375 84.464844 105.628906 C 84.242188 105.378906 83.855469 105.476562 83.6875 105.726562 C 83.457031 106.078125 83.574219 106.535156 83.410156 106.917969 C 83.253906 107.285156 82.988281 107.570312 82.683594 107.820312 C 82.035156 108.355469 81.050781 108.554688 80.246094 108.683594 C 79.3125 108.832031 78.316406 108.738281 77.46875 108.304688 C 77.03125 108.078125 76.652344 107.757812 76.285156 107.4375 C 75.980469 107.164062 75.394531 106.773438 74.964844 106.90625 C 74.890625 106.929688 74.855469 106.988281 74.847656 107.0625 " fill-opacity="1" fill-rule="nonzero"/><path fill="#7ed957" d="M 84.339844 106.1875 C 85.335938 106.109375 86.316406 106 87.320312 106.015625 C 88.394531 106.035156 89.46875 106.136719 90.539062 106.171875 C 91.824219 106.21875 93.125 106.113281 94.410156 106.082031 C 95.816406 106.050781 97.226562 106.019531 98.632812 106.0625 C 101.261719 106.144531 103.890625 106.300781 106.515625 106.46875 C 107.808594 106.550781 109.101562 106.625 110.394531 106.683594 C 111.078125 106.714844 111.761719 106.738281 112.445312 106.753906 C 113.128906 106.769531 113.832031 106.824219 114.492188 106.617188 C 115.027344 106.453125 115.023438 105.703125 114.492188 105.535156 C 113.890625 105.347656 113.257812 105.375 112.632812 105.355469 C 111.949219 105.339844 111.261719 105.308594 110.578125 105.273438 C 109.222656 105.207031 107.871094 105.109375 106.515625 105.023438 C 103.824219 104.84375 101.140625 104.695312 98.441406 104.710938 C 97.09375 104.714844 95.753906 104.722656 94.410156 104.761719 C 93.074219 104.796875 91.734375 104.90625 90.398438 104.878906 C 89.320312 104.855469 88.246094 104.769531 87.164062 104.769531 C 86.160156 104.765625 84.976562 104.792969 84.117188 105.378906 C 83.789062 105.601562 83.871094 106.226562 84.339844 106.1875 " fill-opacity="1" fill-rule="nonzero"/><path fill="#7ed957" d="M 113.199219 67.671875 C 112.90625 69.113281 113.101562 70.695312 113.289062 72.136719 C 113.484375 73.628906 113.757812 75.109375 113.976562 76.597656 C 114.417969 79.667969 114.4375 82.808594 114.496094 85.902344 C 114.558594 89.003906 114.757812 92.117188 114.667969 95.214844 C 114.625 96.746094 114.496094 98.273438 114.273438 99.789062 C 114.167969 100.53125 114.085938 101.273438 114.007812 102.019531 C 113.933594 102.707031 113.808594 103.40625 113.789062 104.097656 C 113.777344 104.488281 113.742188 104.875 113.714844 105.265625 C 113.699219 105.503906 113.667969 105.738281 113.738281 105.972656 C 113.757812 106.027344 113.773438 106.082031 113.789062 106.132812 C 113.875 106.417969 113.78125 106.296875 113.796875 106.078125 C 113.75 106.777344 114.835938 106.773438 114.882812 106.078125 L 114.886719 106.054688 C 114.832031 106.179688 114.777344 106.308594 114.726562 106.4375 C 115.226562 105.929688 115.097656 104.878906 115.125 104.222656 C 115.179688 102.867188 115.328125 101.472656 115.523438 100.132812 C 115.96875 97.078125 116.035156 94.011719 115.882812 90.933594 C 115.730469 87.820312 115.722656 84.703125 115.574219 81.589844 C 115.496094 80.050781 115.394531 78.507812 115.191406 76.980469 C 114.996094 75.488281 114.703125 74.015625 114.441406 72.53125 C 114.304688 71.757812 114.195312 70.976562 114.082031 70.195312 C 113.960938 69.355469 113.949219 68.511719 113.832031 67.671875 C 113.785156 67.351562 113.257812 67.367188 113.199219 67.671875 " fill-opacity="1" fill-rule="nonzero"/><path fill="#7ed957" d="M 45.867188 67.847656 C 45.371094 67.660156 44.839844 68.136719 44.492188 68.441406 C 44.128906 68.765625 43.359375 69.28125 43.433594 69.835938 C 43.449219 69.953125 43.503906 70.066406 43.632812 70.09375 C 44.210938 70.21875 44.675781 69.5625 45.042969 69.207031 C 45.390625 68.875 45.933594 68.496094 45.96875 67.980469 C 45.972656 67.914062 45.921875 67.867188 45.867188 67.847656 " fill-opacity="1" fill-rule="nonzero"/><g clip-path="url(#9fb2175f6f)"><path fill="#7ed957" d="M 43.425781 69.523438 C 42.769531 70.621094 42.71875 72.078125 42.683594 73.324219 C 42.640625 74.734375 42.816406 76.15625 42.90625 77.5625 C 43.09375 80.585938 42.945312 83.644531 42.867188 86.671875 C 42.828125 88.25 42.796875 89.832031 42.757812 91.414062 C 42.722656 93.003906 42.621094 94.589844 42.628906 96.183594 C 42.644531 98.574219 42.875 100.984375 42.789062 103.375 C 42.734375 104.796875 42.679688 106.21875 42.660156 107.644531 C 42.652344 108.289062 42.644531 108.941406 42.675781 109.585938 C 42.695312 110.035156 42.691406 110.652344 43.136719 110.910156 C 43.035156 110.777344 42.933594 110.644531 42.832031 110.511719 C 42.835938 110.546875 42.839844 110.582031 42.847656 110.617188 C 42.902344 110.996094 43.332031 111.117188 43.644531 111.070312 C 43.996094 111.019531 44.109375 110.777344 44.285156 110.503906 C 44.480469 110.191406 44.738281 109.910156 44.992188 109.640625 C 45.492188 109.105469 46.121094 108.6875 46.632812 108.15625 C 47.050781 107.722656 46.394531 107.066406 45.972656 107.496094 C 45.09375 108.402344 44.035156 109.109375 43.140625 109.996094 C 43.34375 109.945312 43.550781 109.890625 43.753906 109.835938 C 43.71875 109.828125 43.679688 109.824219 43.644531 109.820312 C 43.796875 110.085938 43.945312 110.351562 44.097656 110.617188 C 44.136719 110.332031 44.152344 110.09375 43.941406 109.867188 C 43.988281 109.917969 44.089844 110.1875 44.046875 110 C 43.996094 109.792969 44.046875 110.078125 44.023438 109.878906 C 44.007812 109.738281 44 109.59375 43.992188 109.453125 C 43.953125 108.71875 43.96875 107.980469 43.984375 107.242188 C 44.011719 105.808594 44.082031 104.378906 44.128906 102.945312 C 44.171875 101.78125 44.066406 100.601562 44.03125 99.4375 C 43.988281 97.84375 43.976562 96.246094 43.964844 94.648438 C 43.945312 91.484375 44.113281 88.316406 44.160156 85.148438 C 44.195312 82.453125 44.277344 79.746094 44.046875 77.058594 C 43.941406 75.816406 43.851562 74.570312 43.765625 73.324219 C 43.679688 72.082031 43.808594 70.851562 43.773438 69.617188 C 43.765625 69.433594 43.523438 69.363281 43.425781 69.523438 " fill-opacity="1" fill-rule="nonzero"/></g><g clip-path="url(#28a1ccfd72)"><path fill="#7ed957" d="M 43.351562 111.320312 C 44.597656 111.445312 45.917969 111.289062 47.164062 111.207031 C 48.441406 111.125 49.714844 111.039062 50.988281 110.957031 C 53.539062 110.789062 56.09375 110.628906 58.648438 110.492188 C 61.199219 110.355469 63.753906 110.246094 66.308594 110.171875 C 68.851562 110.101562 71.40625 110.003906 73.945312 110.222656 C 74.359375 110.261719 74.695312 109.78125 74.570312 109.402344 C 74.386719 108.832031 74.628906 108.46875 74.945312 108 C 75.136719 107.714844 74.761719 107.351562 74.480469 107.53125 C 73.808594 107.964844 73.347656 108.777344 73.292969 109.574219 C 73.511719 109.355469 73.726562 109.140625 73.945312 108.921875 C 71.402344 109.089844 68.851562 109.058594 66.308594 109.140625 C 63.753906 109.222656 61.199219 109.347656 58.648438 109.5 C 56.09375 109.648438 53.539062 109.820312 50.988281 110 C 49.714844 110.089844 48.441406 110.179688 47.164062 110.269531 C 45.882812 110.359375 44.515625 110.378906 43.261719 110.675781 C 42.878906 110.765625 43.003906 111.285156 43.351562 111.320312 " fill-opacity="1" fill-rule="nonzero"/></g><g clip-path="url(#cede84b437)"><path fill="#7ed957" d="M 73.558594 109.835938 C 73.988281 110.527344 74.964844 110.917969 75.671875 111.257812 C 76.625 111.714844 77.660156 112.054688 78.691406 112.289062 C 79.695312 112.515625 80.738281 112.558594 81.75 112.34375 C 82.566406 112.167969 83.511719 111.570312 83.964844 110.859375 C 84.207031 110.480469 83.664062 110.082031 83.355469 110.386719 C 83.078125 110.664062 82.820312 110.90625 82.46875 111.089844 C 82.144531 111.261719 81.648438 111.296875 81.285156 111.328125 C 80.40625 111.410156 79.5 111.253906 78.644531 111.058594 C 77.734375 110.851562 76.867188 110.523438 76 110.183594 C 75.304688 109.914062 74.574219 109.433594 73.828125 109.371094 C 73.589844 109.351562 73.441406 109.648438 73.558594 109.835938 " fill-opacity="1" fill-rule="nonzero"/></g><g clip-path="url(#a1b0eb58d2)"><path fill="#7ed957" d="M 84.292969 106 C 84.179688 106.300781 84.148438 106.648438 84.089844 106.964844 C 84.019531 107.359375 83.910156 107.75 83.796875 108.136719 C 83.574219 108.914062 83.328125 109.679688 83.175781 110.476562 C 83.125 110.730469 83.242188 111.035156 83.523438 111.09375 C 83.566406 111.101562 83.613281 111.105469 83.65625 111.109375 C 83.863281 111.128906 84.105469 110.945312 84.140625 110.742188 C 84.28125 109.945312 84.496094 109.164062 84.671875 108.375 C 84.828125 107.664062 85.101562 106.714844 84.855469 106 C 84.761719 105.714844 84.394531 105.730469 84.292969 106 " fill-opacity="1" fill-rule="nonzero"/></g><g clip-path="url(#2c4f1bb7d6)"><path fill="#7ed957" d="M 83.929688 110.53125 C 85.203125 110.773438 86.523438 110.734375 87.816406 110.746094 C 89.21875 110.753906 90.625 110.757812 92.03125 110.773438 C 94.636719 110.796875 97.246094 110.789062 99.851562 110.871094 C 102.132812 110.9375 104.417969 111.09375 106.699219 110.984375 C 107.832031 110.933594 108.964844 110.816406 110.078125 110.609375 C 111 110.445312 112.324219 110.265625 112.945312 109.503906 C 113.15625 109.246094 113.015625 108.914062 112.6875 108.882812 C 112.21875 108.832031 111.785156 108.976562 111.335938 109.105469 C 110.816406 109.25 110.292969 109.363281 109.761719 109.457031 C 108.648438 109.652344 107.515625 109.710938 106.386719 109.746094 C 104.15625 109.816406 101.929688 109.695312 99.707031 109.636719 C 97.148438 109.570312 94.585938 109.6875 92.03125 109.769531 C 90.6875 109.8125 89.347656 109.851562 88.007812 109.882812 C 86.652344 109.917969 85.265625 109.886719 83.929688 110.140625 C 83.734375 110.175781 83.734375 110.496094 83.929688 110.53125 " fill-opacity="1" fill-rule="nonzero"/></g><path fill="#7ed957" d="M 114.246094 105.738281 C 113.019531 105.929688 112.246094 107.851562 112.0625 108.910156 C 112.007812 109.222656 112.09375 109.527344 112.382812 109.695312 C 112.679688 109.871094 113.183594 109.792969 113.332031 109.445312 C 113.582031 108.875 113.707031 108.257812 113.933594 107.675781 C 114.136719 107.148438 114.507812 106.707031 114.679688 106.171875 C 114.769531 105.890625 114.492188 105.699219 114.246094 105.738281 " fill-opacity="1" fill-rule="nonzero"/><g fill="#000000" fill-opacity="1"><g transform="translate(25.477738, 68.324841)"><g><path d="M -11.46875 -7.25 L -0.390625 -3.453125 L 1.71875 -9.625 L 3.125 -9.140625 L 0.46875 -1.375 L -12.015625 -5.65625 Z M -11.46875 -7.25 "/></g></g></g><g fill="#000000" fill-opacity="1"><g transform="translate(29.607576, 57.351447)"><g><path d="M -9.9375 -9.375 L 1.671875 -3.09375 L 0.859375 -1.59375 L -10.75 -7.875 Z M -9.9375 -9.375 "/></g></g></g><g fill="#000000" fill-opacity="1"><g transform="translate(32.609154, 51.437388)"><g><path d="M 4.140625 -11.140625 C 5.023438 -10.429688 5.507812 -9.582031 5.59375 -8.59375 C 5.6875 -7.601562 5.367188 -6.65625 4.640625 -5.75 L 0.890625 -1.109375 L -9.390625 -9.40625 L -6.015625 -13.578125 C -5.640625 -14.046875 -5.242188 -14.410156 -4.828125 -14.671875 C -4.421875 -14.941406 -4.039062 -15.113281 -3.6875 -15.1875 C -3.34375 -15.269531 -2.988281 -15.285156 -2.625 -15.234375 C -2.257812 -15.191406 -1.945312 -15.101562 -1.6875 -14.96875 C -1.425781 -14.84375 -1.175781 -14.6875 -0.9375 -14.5 C 0.101562 -13.65625 0.460938 -12.585938 0.140625 -11.296875 C 0.921875 -11.734375 1.628906 -11.941406 2.265625 -11.921875 C 2.898438 -11.898438 3.523438 -11.640625 4.140625 -11.140625 Z M -1.828125 -13.046875 C -2.148438 -13.304688 -2.460938 -13.472656 -2.765625 -13.546875 C -3.078125 -13.628906 -3.367188 -13.613281 -3.640625 -13.5 C -3.910156 -13.382812 -4.160156 -13.226562 -4.390625 -13.03125 C -4.628906 -12.84375 -4.867188 -12.601562 -5.109375 -12.3125 L -7.140625 -9.78125 L -3.875 -7.140625 L -1.84375 -9.671875 C -1.3125 -10.328125 -1.03125 -10.9375 -1 -11.5 C -0.96875 -12.0625 -1.242188 -12.578125 -1.828125 -13.046875 Z M 3.375 -6.5625 C 3.65625 -6.90625 3.84375 -7.25 3.9375 -7.59375 C 4.03125 -7.945312 4.035156 -8.257812 3.953125 -8.53125 C 3.867188 -8.8125 3.757812 -9.054688 3.625 -9.265625 C 3.488281 -9.472656 3.316406 -9.660156 3.109375 -9.828125 C 2.578125 -10.253906 2.019531 -10.4375 1.4375 -10.375 C 0.863281 -10.320312 0.332031 -10 -0.15625 -9.40625 L -2.71875 -6.21875 L 0.8125 -3.375 Z M 3.375 -6.5625 "/></g></g></g><g fill="#000000" fill-opacity="1"><g transform="translate(40.982417, 41.192895)"><g><path d="M 3.828125 -11.03125 C 4.304688 -11.15625 4.738281 -11.1875 5.125 -11.125 C 5.507812 -11.0625 5.832031 -10.929688 6.09375 -10.734375 C 6.351562 -10.546875 6.59375 -10.320312 6.8125 -10.0625 C 7.039062 -9.800781 7.25 -9.53125 7.4375 -9.25 C 7.632812 -8.976562 7.832031 -8.722656 8.03125 -8.484375 C 8.226562 -8.242188 8.457031 -8.050781 8.71875 -7.90625 C 8.976562 -7.757812 9.265625 -7.695312 9.578125 -7.71875 L 9.828125 -7.390625 L 8.1875 -6.15625 C 7.65625 -6.476562 7.128906 -6.984375 6.609375 -7.671875 L 5.90625 -8.609375 C 5.40625 -9.265625 4.898438 -9.632812 4.390625 -9.71875 C 3.890625 -9.8125 3.34375 -9.632812 2.75 -9.1875 L -0.71875 -6.578125 L 2.703125 -2.03125 L 1.34375 -1.015625 L -6.59375 -11.5625 L -1.71875 -15.21875 C -0.6875 -16 0.28125 -16.351562 1.1875 -16.28125 C 2.101562 -16.207031 2.90625 -15.71875 3.59375 -14.8125 C 4.050781 -14.195312 4.296875 -13.597656 4.328125 -13.015625 C 4.367188 -12.429688 4.203125 -11.769531 3.828125 -11.03125 Z M 2.34375 -13.578125 C 2.0625 -13.941406 1.773438 -14.207031 1.484375 -14.375 C 1.203125 -14.539062 0.914062 -14.609375 0.625 -14.578125 C 0.332031 -14.554688 0.0507812 -14.476562 -0.21875 -14.34375 C -0.488281 -14.21875 -0.78125 -14.039062 -1.09375 -13.8125 L -4.328125 -11.375 L -1.609375 -7.765625 L 1.625 -10.203125 C 2.34375 -10.742188 2.757812 -11.285156 2.875 -11.828125 C 2.988281 -12.367188 2.8125 -12.953125 2.34375 -13.578125 Z M 2.34375 -13.578125 "/></g></g></g><g fill="#000000" fill-opacity="1"><g transform="translate(52.315636, 32.754179)"><g><path d="M 10.078125 -10.953125 C 10.429688 -10.066406 10.625 -9.179688 10.65625 -8.296875 C 10.695312 -7.421875 10.582031 -6.597656 10.3125 -5.828125 C 10.039062 -5.054688 9.597656 -4.359375 8.984375 -3.734375 C 8.367188 -3.109375 7.609375 -2.617188 6.703125 -2.265625 C 4.941406 -1.546875 3.28125 -1.554688 1.71875 -2.296875 C 0.15625 -3.035156 -1.007812 -4.363281 -1.78125 -6.28125 C -2.550781 -8.195312 -2.628906 -9.960938 -2.015625 -11.578125 C -1.398438 -13.203125 -0.21875 -14.367188 1.53125 -15.078125 C 3.332031 -15.804688 5.007812 -15.796875 6.5625 -15.046875 C 8.113281 -14.296875 9.285156 -12.929688 10.078125 -10.953125 Z M 2.078125 -13.703125 C 0.785156 -13.179688 -0.0703125 -12.296875 -0.5 -11.046875 C -0.925781 -9.796875 -0.835938 -8.410156 -0.234375 -6.890625 C 0.367188 -5.378906 1.257812 -4.320312 2.4375 -3.71875 C 3.613281 -3.125 4.851562 -3.09375 6.15625 -3.625 C 7.457031 -4.144531 8.328125 -5.023438 8.765625 -6.265625 C 9.203125 -7.503906 9.125 -8.863281 8.53125 -10.34375 C 7.90625 -11.894531 7.003906 -12.972656 5.828125 -13.578125 C 4.660156 -14.191406 3.410156 -14.234375 2.078125 -13.703125 Z M 2.078125 -13.703125 "/></g></g></g><g fill="#000000" fill-opacity="1"><g transform="translate(66.920729, 27.522592)"><g/></g></g><g fill="#000000" fill-opacity="1"><g transform="translate(73.349612, 26.088707)"><g><path d="M 0.90625 -6.453125 C 0.90625 -6.867188 0.9375 -7.285156 1 -7.703125 C 1.0625 -8.117188 1.15625 -8.554688 1.28125 -9.015625 C 1.414062 -9.484375 1.582031 -9.921875 1.78125 -10.328125 C 1.988281 -10.742188 2.253906 -11.140625 2.578125 -11.515625 C 2.898438 -11.898438 3.265625 -12.222656 3.671875 -12.484375 C 4.085938 -12.753906 4.578125 -12.96875 5.140625 -13.125 C 5.703125 -13.289062 6.320312 -13.375 7 -13.375 C 9.875 -13.351562 11.5625 -11.90625 12.0625 -9.03125 L 10.328125 -9.046875 C 10.148438 -9.992188 9.773438 -10.703125 9.203125 -11.171875 C 8.628906 -11.640625 7.820312 -11.878906 6.78125 -11.890625 C 5.5 -11.898438 4.484375 -11.414062 3.734375 -10.4375 C 2.992188 -9.46875 2.617188 -8.140625 2.609375 -6.453125 C 2.597656 -4.796875 2.972656 -3.476562 3.734375 -2.5 C 4.492188 -1.519531 5.53125 -1.023438 6.84375 -1.015625 C 7.925781 -1.003906 8.757812 -1.304688 9.34375 -1.921875 C 9.9375 -2.535156 10.34375 -3.472656 10.5625 -4.734375 L 12.296875 -4.734375 C 11.867188 -1.253906 10.046875 0.472656 6.828125 0.453125 C 6.066406 0.441406 5.367188 0.332031 4.734375 0.125 C 4.109375 -0.0820312 3.585938 -0.367188 3.171875 -0.734375 C 2.753906 -1.109375 2.390625 -1.519531 2.078125 -1.96875 C 1.765625 -2.425781 1.523438 -2.921875 1.359375 -3.453125 C 1.203125 -3.992188 1.082031 -4.503906 1 -4.984375 C 0.925781 -5.472656 0.894531 -5.960938 0.90625 -6.453125 Z M 0.90625 -6.453125 "/></g></g></g><g fill="#000000" fill-opacity="1"><g transform="translate(87.560628, 26.389245)"><g><path d="M 4.71875 -5 L 3.578125 -0.609375 L 11.125 1.34375 L 10.75 2.78125 L 1.578125 0.40625 L 4.890625 -12.375 L 13.734375 -10.078125 L 13.359375 -8.625 L 6.140625 -10.5 L 5.078125 -6.4375 L 12.03125 -4.625 L 11.671875 -3.1875 Z M 4.71875 -5 "/></g></g></g><g fill="#000000" fill-opacity="1"><g transform="translate(100.34893, 29.787193)"><g><path d="M 16.59375 -5.96875 L 10.265625 5.609375 L 8.59375 4.703125 L 7.734375 -7.953125 L 2.609375 1.421875 L 1.203125 0.65625 L 7.53125 -10.921875 L 9.140625 -10.046875 L 10.015625 2.71875 L 15.1875 -6.734375 Z M 16.59375 -5.96875 "/></g></g></g><g fill="#000000" fill-opacity="1"><g transform="translate(112.732088, 36.858067)"><g><path d="M 12.625 -4.34375 L 4.734375 4.3125 L 3.5 3.1875 L 11.390625 -5.46875 L 8.171875 -8.40625 L 9.171875 -9.515625 L 16.828125 -2.53125 L 15.828125 -1.421875 Z M 12.625 -4.34375 "/></g></g></g><g fill="#000000" fill-opacity="1"><g transform="translate(121.775707, 45.221196)"><g><path d="M 6.84375 -0.671875 L 3.09375 1.890625 L 7.5 8.3125 L 6.28125 9.15625 L 0.921875 1.34375 L 11.8125 -6.125 L 16.984375 1.40625 L 15.75 2.25 L 11.53125 -3.890625 L 8.0625 -1.5 L 12.125 4.421875 L 10.90625 5.25 Z M 6.84375 -0.671875 "/></g></g></g><g fill="#000000" fill-opacity="1"><g transform="translate(129.192224, 56.177956)"><g><path d="M 9.46875 6.828125 C 9.445312 7.328125 9.347656 7.753906 9.171875 8.109375 C 9.003906 8.460938 8.789062 8.734375 8.53125 8.921875 C 8.28125 9.109375 7.992188 9.269531 7.671875 9.40625 C 7.359375 9.550781 7.039062 9.675781 6.71875 9.78125 C 6.394531 9.894531 6.09375 10.007812 5.8125 10.125 C 5.53125 10.25 5.28125 10.414062 5.0625 10.625 C 4.851562 10.832031 4.710938 11.085938 4.640625 11.390625 L 4.265625 11.53125 L 3.5625 9.609375 C 4.019531 9.191406 4.648438 8.832031 5.453125 8.53125 L 6.5625 8.125 C 7.332031 7.84375 7.828125 7.472656 8.046875 7.015625 C 8.273438 6.554688 8.257812 5.972656 8 5.265625 L 6.5 1.203125 L 1.171875 3.171875 L 0.578125 1.578125 L 12.96875 -3 L 15.09375 2.71875 C 15.539062 3.925781 15.597656 4.957031 15.265625 5.8125 C 14.929688 6.675781 14.234375 7.300781 13.171875 7.6875 C 12.453125 7.957031 11.804688 8.023438 11.234375 7.890625 C 10.660156 7.753906 10.070312 7.398438 9.46875 6.828125 Z M 12.328125 6.140625 C 12.765625 5.972656 13.101562 5.773438 13.34375 5.546875 C 13.582031 5.328125 13.726562 5.070312 13.78125 4.78125 C 13.84375 4.488281 13.851562 4.191406 13.8125 3.890625 C 13.769531 3.597656 13.679688 3.269531 13.546875 2.90625 L 12.140625 -0.890625 L 7.90625 0.6875 L 9.3125 4.484375 C 9.625 5.328125 10.019531 5.878906 10.5 6.140625 C 10.988281 6.410156 11.597656 6.410156 12.328125 6.140625 Z M 12.328125 6.140625 "/></g></g></g><g fill="#000000" fill-opacity="1"><g transform="translate(12.860206, 99.550849)"><g><path d="M 1.65625 3.109375 C 1.75 3.390625 1.859375 3.628906 1.984375 3.828125 C 2.117188 4.035156 2.25 4.191406 2.375 4.296875 C 2.507812 4.398438 2.644531 4.46875 2.78125 4.5 C 2.925781 4.53125 3.054688 4.546875 3.171875 4.546875 C 3.285156 4.546875 3.40625 4.523438 3.53125 4.484375 C 3.800781 4.390625 3.988281 4.203125 4.09375 3.921875 C 4.207031 3.648438 4.257812 3.28125 4.25 2.8125 L 4.109375 0.90625 C 4.046875 -0.09375 4.441406 -0.734375 5.296875 -1.015625 C 5.921875 -1.222656 6.492188 -1.160156 7.015625 -0.828125 C 7.546875 -0.503906 7.9375 0.0390625 8.1875 0.8125 C 8.457031 1.613281 8.472656 2.300781 8.234375 2.875 C 8.003906 3.445312 7.546875 3.851562 6.859375 4.09375 L 6.578125 3.25 C 7.035156 3.082031 7.332031 2.804688 7.46875 2.421875 C 7.613281 2.046875 7.597656 1.582031 7.421875 1.03125 C 7.265625 0.5625 7.03125 0.21875 6.71875 0 C 6.40625 -0.21875 6.066406 -0.265625 5.703125 -0.140625 C 5.441406 -0.0546875 5.257812 0.09375 5.15625 0.3125 C 5.0625 0.53125 5.035156 0.875 5.078125 1.34375 L 5.15625 3.28125 C 5.195312 3.789062 5.109375 4.222656 4.890625 4.578125 C 4.671875 4.929688 4.34375 5.179688 3.90625 5.328125 C 3.71875 5.390625 3.523438 5.425781 3.328125 5.4375 C 3.128906 5.457031 2.910156 5.429688 2.671875 5.359375 C 2.429688 5.296875 2.203125 5.191406 1.984375 5.046875 C 1.773438 4.898438 1.566406 4.679688 1.359375 4.390625 C 1.160156 4.097656 0.992188 3.738281 0.859375 3.3125 C 0.765625 3.039062 0.695312 2.78125 0.65625 2.53125 C 0.625 2.28125 0.625 2.007812 0.65625 1.71875 C 0.6875 1.425781 0.757812 1.160156 0.875 0.921875 C 0.988281 0.691406 1.171875 0.460938 1.421875 0.234375 C 1.679688 0.015625 2.003906 -0.160156 2.390625 -0.296875 L 2.671875 0.5625 L 2.625 0.59375 C 2.425781 0.65625 2.25 0.742188 2.09375 0.859375 C 1.9375 0.984375 1.796875 1.140625 1.671875 1.328125 C 1.554688 1.523438 1.492188 1.773438 1.484375 2.078125 C 1.472656 2.390625 1.53125 2.734375 1.65625 3.109375 Z M 1.65625 3.109375 "/></g></g></g><g fill="#000000" fill-opacity="1"><g transform="translate(15.786555, 107.7543)"><g><path d="M 7.546875 -1.203125 L 0.796875 1.796875 L 0.40625 0.921875 L 7.15625 -2.078125 Z M 7.546875 -1.203125 "/></g></g></g><g fill="#000000" fill-opacity="1"><g transform="translate(17.721319, 112.139548)"><g><path d="M 9.65625 2 L 3.25 5.671875 L 2.734375 4.75 L 6.015625 -1.546875 L 0.828125 1.4375 L 0.375 0.671875 L 6.78125 -3 L 7.296875 -2.109375 L 3.984375 4.234375 L 9.21875 1.234375 Z M 9.65625 2 "/></g></g></g><g fill="#000000" fill-opacity="1"><g transform="translate(22.532363, 120.237905)"><g><path d="M 3.15625 -1.8125 C 3.332031 -1.957031 3.523438 -2.09375 3.734375 -2.21875 C 3.953125 -2.34375 4.179688 -2.453125 4.421875 -2.546875 C 4.671875 -2.648438 4.921875 -2.726562 5.171875 -2.78125 C 5.421875 -2.832031 5.679688 -2.847656 5.953125 -2.828125 C 6.234375 -2.816406 6.503906 -2.769531 6.765625 -2.6875 C 7.023438 -2.601562 7.289062 -2.460938 7.5625 -2.265625 C 7.832031 -2.078125 8.082031 -1.835938 8.3125 -1.546875 C 9.300781 -0.265625 9.242188 0.984375 8.140625 2.203125 L 7.546875 1.4375 C 7.898438 1.03125 8.082031 0.613281 8.09375 0.1875 C 8.113281 -0.226562 7.945312 -0.664062 7.59375 -1.125 C 7.15625 -1.6875 6.59375 -1.960938 5.90625 -1.953125 C 5.21875 -1.941406 4.5 -1.648438 3.75 -1.078125 C 3.007812 -0.503906 2.554688 0.113281 2.390625 0.78125 C 2.222656 1.457031 2.363281 2.085938 2.8125 2.671875 C 3.1875 3.160156 3.609375 3.425781 4.078125 3.46875 C 4.546875 3.507812 5.097656 3.351562 5.734375 3 L 6.34375 3.78125 C 4.65625 4.800781 3.257812 4.597656 2.15625 3.171875 C 1.894531 2.828125 1.703125 2.476562 1.578125 2.125 C 1.453125 1.78125 1.394531 1.445312 1.40625 1.125 C 1.425781 0.8125 1.484375 0.507812 1.578125 0.21875 C 1.679688 -0.0703125 1.820312 -0.34375 2 -0.59375 C 2.175781 -0.851562 2.359375 -1.078125 2.546875 -1.265625 C 2.734375 -1.460938 2.9375 -1.644531 3.15625 -1.8125 Z M 3.15625 -1.8125 "/></g></g></g><g fill="#000000" fill-opacity="1"><g transform="translate(28.402425, 127.583118)"><g><path d="M 3.703125 -1.078125 L 1.90625 0.71875 L 5 3.78125 L 4.421875 4.375 L 0.640625 0.640625 L 5.84375 -4.609375 L 9.484375 -1 L 8.90625 -0.40625 L 5.953125 -3.34375 L 4.28125 -1.671875 L 7.125 1.15625 L 6.546875 1.75 Z M 3.703125 -1.078125 "/></g></g></g><g fill="#000000" fill-opacity="1"><g transform="translate(34.725875, 133.573427)"><g/></g></g><g fill="#000000" fill-opacity="1"><g transform="translate(38.42001, 136.545403)"><g><path d="M 5.03125 -2.78125 L 3.71875 -3.671875 L 4.078125 -4.1875 C 4.304688 -4.082031 4.488281 -4 4.625 -3.9375 C 4.769531 -3.875 4.910156 -3.828125 5.046875 -3.796875 C 5.179688 -3.765625 5.296875 -3.75 5.390625 -3.75 C 5.492188 -3.75 5.601562 -3.773438 5.71875 -3.828125 C 5.832031 -3.878906 5.941406 -3.941406 6.046875 -4.015625 C 6.148438 -4.085938 6.285156 -4.1875 6.453125 -4.3125 L 6.9375 -3.984375 L 2.921875 1.96875 L 2.171875 1.46875 Z M 5.03125 -2.78125 "/></g></g></g><g fill="#000000" fill-opacity="1"><g transform="translate(44.813724, 140.72147)"><g><path d="M 6.28125 -0.859375 C 5.988281 -0.296875 5.679688 0.171875 5.359375 0.546875 C 5.035156 0.921875 4.726562 1.191406 4.4375 1.359375 C 4.15625 1.523438 3.867188 1.625 3.578125 1.65625 C 3.285156 1.695312 3.03125 1.691406 2.8125 1.640625 C 2.59375 1.585938 2.378906 1.507812 2.171875 1.40625 C 1.679688 1.144531 1.351562 0.785156 1.1875 0.328125 C 1.03125 -0.128906 1.050781 -0.640625 1.25 -1.203125 L 2.046875 -0.78125 C 1.929688 -0.457031 1.921875 -0.160156 2.015625 0.109375 C 2.109375 0.378906 2.300781 0.585938 2.59375 0.734375 C 3.039062 0.972656 3.492188 0.945312 3.953125 0.65625 C 4.421875 0.363281 4.859375 -0.164062 5.265625 -0.9375 C 4.941406 -0.8125 4.632812 -0.75 4.34375 -0.75 C 4.050781 -0.757812 3.753906 -0.84375 3.453125 -1 C 2.878906 -1.300781 2.507812 -1.734375 2.34375 -2.296875 C 2.175781 -2.867188 2.242188 -3.445312 2.546875 -4.03125 C 2.878906 -4.65625 3.34375 -5.066406 3.9375 -5.265625 C 4.539062 -5.472656 5.144531 -5.421875 5.75 -5.109375 C 6.132812 -4.898438 6.425781 -4.644531 6.625 -4.34375 C 6.832031 -4.050781 6.945312 -3.71875 6.96875 -3.34375 C 6.988281 -2.96875 6.941406 -2.578125 6.828125 -2.171875 C 6.710938 -1.765625 6.53125 -1.328125 6.28125 -0.859375 Z M 6.09375 -3.515625 C 5.988281 -3.910156 5.753906 -4.203125 5.390625 -4.390625 C 5.023438 -4.585938 4.65625 -4.617188 4.28125 -4.484375 C 3.90625 -4.359375 3.613281 -4.097656 3.40625 -3.703125 C 3.175781 -3.273438 3.101562 -2.875 3.1875 -2.5 C 3.28125 -2.125 3.519531 -1.835938 3.90625 -1.640625 C 4.289062 -1.429688 4.671875 -1.390625 5.046875 -1.515625 C 5.421875 -1.648438 5.710938 -1.910156 5.921875 -2.296875 C 6.140625 -2.710938 6.195312 -3.117188 6.09375 -3.515625 Z M 6.09375 -3.515625 "/></g></g></g><g fill="#000000" fill-opacity="1"><g transform="translate(51.630724, 144.1635)"><g><path d="M 6.140625 -1.546875 C 5.910156 -0.953125 5.65625 -0.445312 5.375 -0.03125 C 5.09375 0.375 4.816406 0.671875 4.546875 0.859375 C 4.285156 1.054688 4.015625 1.1875 3.734375 1.25 C 3.453125 1.320312 3.195312 1.34375 2.96875 1.3125 C 2.75 1.289062 2.535156 1.238281 2.328125 1.15625 C 1.804688 0.957031 1.4375 0.632812 1.21875 0.1875 C 1.007812 -0.25 0.972656 -0.753906 1.109375 -1.328125 L 1.9375 -1.015625 C 1.863281 -0.660156 1.890625 -0.359375 2.015625 -0.109375 C 2.148438 0.140625 2.363281 0.320312 2.65625 0.4375 C 3.132812 0.625 3.585938 0.546875 4.015625 0.203125 C 4.453125 -0.128906 4.828125 -0.707031 5.140625 -1.53125 C 4.828125 -1.351562 4.523438 -1.25 4.234375 -1.21875 C 3.941406 -1.195312 3.640625 -1.25 3.328125 -1.375 C 2.722656 -1.601562 2.300781 -1.992188 2.0625 -2.546875 C 1.832031 -3.097656 1.84375 -3.679688 2.09375 -4.296875 C 2.34375 -4.960938 2.753906 -5.425781 3.328125 -5.6875 C 3.910156 -5.945312 4.519531 -5.957031 5.15625 -5.71875 C 5.5625 -5.550781 5.878906 -5.332031 6.109375 -5.0625 C 6.347656 -4.789062 6.5 -4.46875 6.5625 -4.09375 C 6.625 -3.726562 6.617188 -3.335938 6.546875 -2.921875 C 6.472656 -2.503906 6.335938 -2.046875 6.140625 -1.546875 Z M 5.671875 -4.171875 C 5.523438 -4.554688 5.257812 -4.820312 4.875 -4.96875 C 4.488281 -5.125 4.113281 -5.113281 3.75 -4.9375 C 3.382812 -4.757812 3.117188 -4.460938 2.953125 -4.046875 C 2.785156 -3.597656 2.765625 -3.191406 2.890625 -2.828125 C 3.023438 -2.472656 3.296875 -2.21875 3.703125 -2.0625 C 4.109375 -1.90625 4.492188 -1.910156 4.859375 -2.078125 C 5.222656 -2.242188 5.484375 -2.53125 5.640625 -2.9375 C 5.804688 -3.375 5.816406 -3.785156 5.671875 -4.171875 Z M 5.671875 -4.171875 "/></g></g></g><g fill="#000000" fill-opacity="1"><g transform="translate(58.787089, 146.829131)"><g><path d="M 6.9375 -5.59375 L 6.75 -4.859375 C 5.675781 -4.023438 4.78125 -3.171875 4.0625 -2.296875 C 3.34375 -1.421875 2.75 -0.453125 2.28125 0.609375 L 1.34375 0.359375 C 1.90625 -0.710938 2.503906 -1.628906 3.140625 -2.390625 C 3.785156 -3.148438 4.6875 -4.007812 5.84375 -4.96875 L 2.078125 -5.96875 L 2.296875 -6.828125 Z M 6.9375 -5.59375 "/></g></g></g><g fill="#000000" fill-opacity="1"><g transform="translate(66.123034, 148.627882)"><g/></g></g><g fill="#000000" fill-opacity="1"><g transform="translate(70.724092, 149.357825)"><g><path d="M 2.71875 -7.140625 L 1.953125 0.203125 L 1.015625 0.109375 L 1.78125 -7.234375 Z M 2.71875 -7.140625 "/></g></g></g><g fill="#000000" fill-opacity="1"><g transform="translate(75.490322, 149.864543)"><g><path d="M 6.546875 -7.390625 L 6.546875 0 L 5.484375 0 L 1.65625 -5.984375 L 1.65625 0 L 0.765625 0 L 0.765625 -7.390625 L 1.796875 -7.390625 L 5.65625 -1.359375 L 5.65625 -7.390625 Z M 6.546875 -7.390625 "/></g></g></g><g fill="#000000" fill-opacity="1"><g transform="translate(84.77155, 149.654988)"><g/></g></g><g fill="#000000" fill-opacity="1"><g transform="translate(89.54131, 149.182619)"><g><path d="M 0.890625 -0.1875 L -0.609375 -7.421875 L 2.171875 -8 C 3.085938 -8.1875 3.875 -8.015625 4.53125 -7.484375 C 5.195312 -6.953125 5.644531 -6.125 5.875 -5 C 6.101562 -3.875 6.019531 -2.929688 5.625 -2.171875 C 5.238281 -1.421875 4.585938 -0.953125 3.671875 -0.765625 Z M 1.640625 -1.1875 L 3.34375 -1.546875 C 4.0625 -1.691406 4.550781 -2.039062 4.8125 -2.59375 C 5.082031 -3.144531 5.125 -3.875 4.9375 -4.78125 C 4.75 -5.707031 4.421875 -6.367188 3.953125 -6.765625 C 3.492188 -7.171875 2.90625 -7.300781 2.1875 -7.15625 L 0.484375 -6.796875 Z M 1.640625 -1.1875 "/></g></g></g><g fill="#000000" fill-opacity="1"><g transform="translate(98.73544, 147.133848)"><g><path d="M 4.125 -5.046875 L 0.546875 -3.78125 L 1.671875 -0.59375 L 0.796875 -0.28125 L -1.671875 -7.25 L -0.796875 -7.5625 L 0.265625 -4.5625 L 3.84375 -5.828125 L 2.78125 -8.828125 L 3.6875 -9.15625 L 6.15625 -2.1875 L 5.25 -1.859375 Z M 4.125 -5.046875 "/></g></g></g><g fill="#000000" fill-opacity="1"><g transform="translate(107.542851, 143.842796)"><g><path d="M 3.265625 -4.15625 L 0.71875 -2.859375 L 1.046875 -0.53125 L 0.15625 -0.078125 L -0.875 -7.859375 L 0.21875 -8.421875 L 5.890625 -3.015625 L 4.96875 -2.546875 Z M 2.671875 -4.765625 L 0.125 -7.234375 L 0.578125 -3.6875 Z M 2.671875 -4.765625 "/></g></g></g><g fill="#000000" fill-opacity="1"><g transform="translate(115.33915, 139.699101)"><g><path d="M -0.015625 -3.109375 L 1.4375 -0.984375 L 0.65625 -0.453125 L -3.53125 -6.546875 L -2.75 -7.078125 L -0.625 -4 L 0.28125 -9.15625 L 1.28125 -9.859375 L 0.5 -5.671875 L 5.5 -3.78125 L 4.578125 -3.15625 L 0.28125 -4.796875 Z M -0.015625 -3.109375 "/></g></g></g><g fill="#000000" fill-opacity="1"><g transform="translate(122.541085, 134.591808)"><g><path d="M 2.09375 -4.859375 L -0.03125 -2.953125 L 0.875 -0.78125 L 0.125 -0.109375 L -2.828125 -7.375 L -1.921875 -8.1875 L 4.9375 -4.421875 L 4.15625 -3.71875 Z M 1.375 -5.28125 L -1.734375 -7.03125 L -0.390625 -3.703125 Z M 1.375 -5.28125 "/></g></g></g><g fill="#000000" fill-opacity="1"><g transform="translate(128.902061, 128.641343)"><g/></g></g><g fill="#000000" fill-opacity="1"><g transform="translate(132.153792, 125.119969)"><g><path d="M -2.59375 -2.546875 C -2.78125 -2.679688 -2.960938 -2.832031 -3.140625 -3 C -3.316406 -3.175781 -3.488281 -3.367188 -3.65625 -3.578125 C -3.820312 -3.796875 -3.960938 -4.015625 -4.078125 -4.234375 C -4.191406 -4.460938 -4.28125 -4.710938 -4.34375 -4.984375 C -4.40625 -5.253906 -4.425781 -5.523438 -4.40625 -5.796875 C -4.394531 -6.066406 -4.332031 -6.351562 -4.21875 -6.65625 C -4.113281 -6.96875 -3.945312 -7.273438 -3.71875 -7.578125 C -2.757812 -8.867188 -1.539062 -9.15625 -0.0625 -8.4375 L -0.640625 -7.65625 C -1.128906 -7.882812 -1.578125 -7.945312 -1.984375 -7.84375 C -2.390625 -7.75 -2.769531 -7.46875 -3.125 -7 C -3.539062 -6.4375 -3.65625 -5.820312 -3.46875 -5.15625 C -3.28125 -4.5 -2.804688 -3.890625 -2.046875 -3.328125 C -1.304688 -2.765625 -0.585938 -2.492188 0.109375 -2.515625 C 0.816406 -2.535156 1.382812 -2.835938 1.8125 -3.421875 C 2.1875 -3.921875 2.332031 -4.398438 2.25 -4.859375 C 2.164062 -5.316406 1.863281 -5.804688 1.34375 -6.328125 L 1.9375 -7.125 C 3.375 -5.769531 3.550781 -4.367188 2.46875 -2.921875 C 2.21875 -2.585938 1.9375 -2.3125 1.625 -2.09375 C 1.320312 -1.882812 1.015625 -1.742188 0.703125 -1.671875 C 0.398438 -1.597656 0.0976562 -1.566406 -0.203125 -1.578125 C -0.515625 -1.597656 -0.816406 -1.65625 -1.109375 -1.75 C -1.410156 -1.851562 -1.675781 -1.96875 -1.90625 -2.09375 C -2.144531 -2.226562 -2.375 -2.378906 -2.59375 -2.546875 Z M -2.59375 -2.546875 "/></g></g></g><g fill="#000000" fill-opacity="1"><g transform="translate(137.52604, 117.548721)"><g><path d="M -5.328125 -5.46875 L 1.015625 -1.6875 L 0.515625 -0.875 L -5.828125 -4.65625 Z M -5.328125 -5.46875 "/></g></g></g><g fill="#000000" fill-opacity="1"><g transform="translate(139.953488, 113.455237)"><g><path d="M -4.375 -6.078125 L 1.546875 -3.25 L 1.140625 -2.390625 L -4.78125 -5.21875 L -5.828125 -3.03125 L -6.578125 -3.375 L -4.078125 -8.609375 L -3.328125 -8.265625 Z M -4.375 -6.078125 "/></g></g></g><g fill="#000000" fill-opacity="1"><g transform="translate(143.398218, 105.965016)"><g><path d="M -1.53125 -4.640625 L 1.234375 -3.71875 L 0.9375 -2.828125 L -1.828125 -3.75 L -6.96875 -2.46875 L -6.609375 -3.5625 L -2.515625 -4.5 L -5.265625 -7.625 L -4.90625 -8.6875 Z M -1.53125 -4.640625 "/></g></g></g></svg>