<svg xmlns="http://www.w3.org/2000/svg" xmlns:xlink="http://www.w3.org/1999/xlink" width="226" zoomAndPan="magnify" viewBox="0 0 169.5 36.000001" height="48" preserveAspectRatio="xMidYMid meet" version="1.0"><defs><filter x="0%" y="0%" width="100%" height="100%" id="59a5904c70"><feColorMatrix values="0 0 0 0 1 0 0 0 0 1 0 0 0 0 1 0 0 0 1 0" color-interpolation-filters="sRGB"/></filter><g/><clipPath id="b468634215"><path d="M 2.578125 3.113281 L 30.703125 3.113281 L 30.703125 31.238281 L 2.578125 31.238281 Z M 2.578125 3.113281 " clip-rule="nonzero"/></clipPath><clipPath id="d7e63cdca4"><path d="M 7.292969 7.824219 L 26.007812 7.824219 L 26.007812 26.542969 L 7.292969 26.542969 Z M 7.292969 7.824219 " clip-rule="nonzero"/></clipPath><clipPath id="375060a3bc"><path d="M 10 13 L 17 13 L 17 22.652344 L 10 22.652344 Z M 10 13 " clip-rule="nonzero"/></clipPath><clipPath id="5dbb828f83"><path d="M 11 11.644531 L 17 11.644531 L 17 22 L 11 22 Z M 11 11.644531 " clip-rule="nonzero"/></clipPath><clipPath id="e74fc6db8f"><path d="M 16 13 L 23 13 L 23 22.652344 L 16 22.652344 Z M 16 13 " clip-rule="nonzero"/></clipPath><clipPath id="eda26a8bab"><path d="M 16 11.644531 L 23 11.644531 L 23 22 L 16 22 Z M 16 11.644531 " clip-rule="nonzero"/></clipPath><clipPath id="b120f2cee8"><path d="M 15 21 L 18 21 L 18 22.652344 L 15 22.652344 Z M 15 21 " clip-rule="nonzero"/></clipPath><clipPath id="0e8ab823f7"><path d="M 17 21 L 23.375 21 L 23.375 22 L 17 22 Z M 17 21 " clip-rule="nonzero"/></clipPath><clipPath id="8a5b50cb90"><path d="M 22 14 L 23.375 14 L 23.375 22 L 22 22 Z M 22 14 " clip-rule="nonzero"/></clipPath><clipPath id="ae297a52d6"><path d="M 9.863281 14 L 11 14 L 11 22.652344 L 9.863281 22.652344 Z M 9.863281 14 " clip-rule="nonzero"/></clipPath><clipPath id="f711a5334b"><path d="M 9.863281 21 L 16 21 L 16 22.652344 L 9.863281 22.652344 Z M 9.863281 21 " clip-rule="nonzero"/></clipPath><clipPath id="004ae3972f"><path d="M 15 22 L 18 22 L 18 22.652344 L 15 22.652344 Z M 15 22 " clip-rule="nonzero"/></clipPath><clipPath id="42169ea0f7"><path d="M 17 21 L 18 21 L 18 22.652344 L 17 22.652344 Z M 17 21 " clip-rule="nonzero"/></clipPath><clipPath id="663d1439b1"><path d="M 17 22 L 23 22 L 23 22.652344 L 17 22.652344 Z M 17 22 " clip-rule="nonzero"/></clipPath><clipPath id="2a950548cc"><path d="M 22 21 L 23.375 21 L 23.375 22.652344 L 22 22.652344 Z M 22 21 " clip-rule="nonzero"/></clipPath><mask id="8963abbb83"><g filter="url(#59a5904c70)"><rect x="-16.95" width="203.4" fill="#000000" y="-3.6" height="43.200001" fill-opacity="0.45"/></g></mask><clipPath id="8a3905f7a8"><rect x="0" width="87" y="0" height="14"/></clipPath><mask id="1e3b1c7e40"><g filter="url(#59a5904c70)"><rect x="-16.95" width="203.4" fill="#000000" y="-3.6" height="43.200001" fill-opacity="0.41"/></g></mask><clipPath id="d1f2f961ff"><path d="M 0.707031 0.925781 L 107.601562 0.925781 L 107.601562 1.425781 L 0.707031 1.425781 Z M 0.707031 0.925781 " clip-rule="nonzero"/></clipPath><clipPath id="382dfad11c"><rect x="0" width="108" y="0" height="2"/></clipPath></defs><g clip-path="url(#b468634215)"><path fill="#000000" d="M 16.640625 31.238281 C 8.886719 31.238281 2.578125 24.925781 2.578125 17.175781 C 2.578125 9.421875 8.886719 3.113281 16.640625 3.113281 C 24.390625 3.113281 30.703125 9.421875 30.703125 17.175781 C 30.703125 24.925781 24.390625 31.238281 16.640625 31.238281 Z M 16.640625 3.320312 C 9 3.320312 2.785156 9.535156 2.785156 17.175781 C 2.785156 24.816406 9 31.027344 16.640625 31.027344 C 24.28125 31.027344 30.496094 24.816406 30.496094 17.175781 C 30.496094 9.535156 24.28125 3.320312 16.640625 3.320312 Z M 16.640625 3.320312 " fill-opacity="1" fill-rule="nonzero"/></g><g clip-path="url(#d7e63cdca4)"><path fill="#000000" d="M 16.648438 26.542969 C 11.492188 26.542969 7.292969 22.34375 7.292969 17.183594 C 7.292969 12.023438 11.492188 7.824219 16.648438 7.824219 C 21.808594 7.824219 26.007812 12.023438 26.007812 17.183594 C 26.007812 22.34375 21.808594 26.542969 16.648438 26.542969 Z M 16.648438 7.964844 C 11.566406 7.964844 7.429688 12.097656 7.429688 17.183594 C 7.429688 22.269531 11.566406 26.402344 16.648438 26.402344 C 21.734375 26.402344 25.867188 22.269531 25.867188 17.183594 C 25.867188 12.097656 21.734375 7.964844 16.648438 7.964844 Z M 16.648438 7.964844 " fill-opacity="1" fill-rule="nonzero"/></g><g clip-path="url(#375060a3bc)"><path fill="#7ed957" d="M 11.90625 13.519531 C 11.5625 13.441406 11.222656 13.503906 10.882812 13.578125 C 10.832031 13.589844 10.785156 13.644531 10.789062 13.699219 C 10.796875 13.863281 10.832031 14.019531 10.84375 14.179688 C 10.863281 14.503906 10.882812 14.832031 10.902344 15.15625 C 10.917969 15.417969 10.929688 15.679688 10.957031 15.941406 C 10.984375 16.210938 10.980469 16.488281 10.984375 16.761719 C 10.988281 17.039062 10.988281 17.316406 10.988281 17.597656 C 10.984375 18.777344 10.953125 19.957031 11.027344 21.136719 C 11.03125 21.222656 11.097656 21.265625 11.179688 21.253906 C 11.195312 21.25 11.210938 21.246094 11.230469 21.246094 C 11.238281 21.242188 11.246094 21.242188 11.253906 21.242188 C 11.292969 21.238281 11.230469 21.246094 11.257812 21.242188 C 11.296875 21.234375 11.332031 21.230469 11.371094 21.226562 C 11.398438 21.222656 11.339844 21.230469 11.367188 21.226562 C 11.375 21.226562 11.382812 21.222656 11.390625 21.222656 C 11.410156 21.222656 11.425781 21.21875 11.445312 21.214844 C 11.484375 21.210938 11.527344 21.207031 11.570312 21.199219 C 11.667969 21.1875 11.765625 21.179688 11.863281 21.167969 C 12.40625 21.113281 12.953125 21.082031 13.5 21.085938 C 14.105469 21.089844 14.71875 21.136719 15.308594 21.289062 C 15.570312 21.359375 15.8125 21.445312 16.046875 21.578125 C 16.25 21.695312 16.425781 21.84375 16.546875 22.035156 C 16.554688 22.046875 16.558594 22.058594 16.566406 22.070312 C 16.652344 22.214844 16.882812 22.082031 16.796875 21.9375 C 16.523438 21.472656 16.027344 21.214844 15.53125 21.0625 C 14.941406 20.882812 14.316406 20.832031 13.703125 20.820312 C 12.847656 20.804688 11.972656 20.867188 11.128906 21.019531 C 11.125 21.019531 11.121094 21.019531 11.113281 21.023438 C 11.164062 21.058594 11.214844 21.097656 11.265625 21.136719 C 11.15625 20.039062 11.1875 18.933594 11.191406 17.832031 C 11.191406 17.277344 11.1875 16.722656 11.164062 16.167969 C 11.152344 15.878906 11.121094 15.585938 11.105469 15.292969 C 11.082031 14.945312 11.0625 14.597656 11.042969 14.25 C 11.035156 14.066406 11.054688 13.882812 11.042969 13.699219 C 11.011719 13.742188 10.980469 13.78125 10.949219 13.824219 C 11.257812 13.757812 11.5625 13.722656 11.875 13.738281 C 12.003906 13.746094 12.03125 13.546875 11.90625 13.519531 " fill-opacity="1" fill-rule="nonzero"/></g><g clip-path="url(#5dbb828f83)"><path fill="#7ed957" d="M 16.792969 21.875 C 16.753906 21.761719 16.726562 21.683594 16.660156 21.582031 C 16.59375 21.476562 16.523438 21.378906 16.445312 21.28125 C 16.28125 21.070312 16.097656 20.878906 15.898438 20.703125 C 15.402344 20.269531 14.804688 19.972656 14.164062 19.820312 C 13.242188 19.605469 12.285156 19.714844 11.386719 19.976562 C 11.441406 20.03125 11.496094 20.085938 11.550781 20.140625 C 11.855469 19.074219 11.925781 17.953125 11.921875 16.847656 C 11.921875 16.320312 11.890625 15.792969 11.882812 15.265625 C 11.878906 14.863281 11.941406 14.460938 11.984375 14.0625 C 12.058594 13.308594 12.09375 12.480469 11.570312 11.867188 C 11.539062 11.945312 11.507812 12.019531 11.476562 12.09375 C 12.433594 11.96875 13.414062 12.070312 14.328125 12.382812 C 15.195312 12.675781 15.984375 13.175781 16.640625 13.8125 C 16.789062 13.957031 17.015625 13.730469 16.867188 13.585938 C 16.195312 12.929688 15.371094 12.445312 14.484375 12.132812 C 13.570312 11.808594 12.550781 11.679688 11.589844 11.816406 C 11.539062 11.820312 11.492188 11.828125 11.441406 11.835938 C 11.332031 11.847656 11.324219 11.988281 11.382812 12.054688 C 11.636719 12.347656 11.71875 12.742188 11.738281 13.121094 C 11.761719 13.546875 11.710938 13.972656 11.664062 14.390625 C 11.644531 14.59375 11.621094 14.796875 11.609375 14.996094 C 11.597656 15.207031 11.605469 15.414062 11.613281 15.621094 C 11.632812 16.175781 11.652344 16.730469 11.644531 17.28125 C 11.632812 18.222656 11.550781 19.164062 11.292969 20.070312 C 11.265625 20.167969 11.359375 20.261719 11.457031 20.234375 C 12.300781 19.988281 13.207031 19.890625 14.070312 20.082031 C 14.6875 20.21875 15.265625 20.511719 15.75 20.921875 C 15.9375 21.082031 16.113281 21.261719 16.273438 21.453125 C 16.34375 21.542969 16.40625 21.621094 16.46875 21.710938 C 16.535156 21.800781 16.59375 21.863281 16.667969 21.949219 C 16.71875 22.003906 16.820312 21.945312 16.792969 21.875 " fill-opacity="1" fill-rule="nonzero"/></g><path fill="#7ed957" d="M 16.773438 13.804688 L 16.78125 13.804688 C 16.800781 13.804688 16.800781 13.777344 16.78125 13.777344 C 16.761719 13.777344 16.738281 13.777344 16.71875 13.777344 C 16.699219 13.777344 16.699219 13.808594 16.71875 13.808594 C 16.722656 13.808594 16.730469 13.808594 16.734375 13.800781 C 16.738281 13.796875 16.738281 13.789062 16.734375 13.78125 C 16.730469 13.777344 16.722656 13.777344 16.71875 13.777344 C 16.699219 13.777344 16.699219 13.808594 16.71875 13.808594 C 16.738281 13.808594 16.761719 13.804688 16.78125 13.804688 C 16.800781 13.804688 16.800781 13.777344 16.78125 13.777344 L 16.773438 13.777344 C 16.753906 13.777344 16.753906 13.804688 16.773438 13.804688 " fill-opacity="1" fill-rule="nonzero"/><g clip-path="url(#e74fc6db8f)"><path fill="#7ed957" d="M 21.722656 13.902344 C 21.859375 13.894531 21.957031 13.839844 22.074219 13.78125 C 22.042969 13.796875 22.085938 13.777344 22.089844 13.777344 C 22.105469 13.773438 22.121094 13.769531 22.132812 13.765625 C 22.109375 13.769531 22.160156 13.765625 22.164062 13.765625 C 22.1875 13.765625 22.207031 13.765625 22.230469 13.769531 C 22.359375 13.777344 22.492188 13.828125 22.613281 13.867188 C 22.582031 13.828125 22.550781 13.785156 22.519531 13.746094 C 22.511719 13.902344 22.53125 14.0625 22.523438 14.222656 C 22.507812 14.546875 22.492188 14.871094 22.46875 15.195312 C 22.453125 15.453125 22.4375 15.714844 22.414062 15.976562 C 22.386719 16.246094 22.386719 16.523438 22.382812 16.796875 C 22.375 17.074219 22.375 17.351562 22.375 17.632812 C 22.375 18.800781 22.417969 19.976562 22.300781 21.140625 C 22.347656 21.105469 22.398438 21.066406 22.449219 21.027344 C 21.6875 20.890625 20.90625 20.832031 20.132812 20.824219 C 19.511719 20.816406 18.882812 20.847656 18.273438 20.976562 C 17.753906 21.085938 17.210938 21.273438 16.832031 21.660156 C 16.753906 21.742188 16.683594 21.835938 16.621094 21.9375 C 16.535156 22.082031 16.761719 22.214844 16.851562 22.070312 C 16.964844 21.878906 17.128906 21.734375 17.324219 21.617188 C 17.550781 21.476562 17.78125 21.394531 18.042969 21.320312 C 18.625 21.15625 19.234375 21.109375 19.835938 21.09375 C 20.402344 21.082031 20.964844 21.109375 21.527344 21.160156 C 21.722656 21.175781 21.914062 21.195312 22.109375 21.222656 C 22.125 21.222656 22.144531 21.226562 22.160156 21.226562 C 22.167969 21.226562 22.195312 21.230469 22.160156 21.226562 C 22.175781 21.230469 22.191406 21.230469 22.207031 21.234375 C 22.238281 21.238281 22.265625 21.242188 22.296875 21.242188 C 22.316406 21.246094 22.335938 21.25 22.355469 21.25 C 22.320312 21.246094 22.347656 21.25 22.371094 21.253906 C 22.375 21.253906 22.378906 21.253906 22.386719 21.257812 C 22.464844 21.265625 22.527344 21.226562 22.535156 21.140625 C 22.605469 20.039062 22.585938 18.9375 22.578125 17.832031 C 22.574219 17.277344 22.574219 16.722656 22.597656 16.167969 C 22.609375 15.882812 22.636719 15.597656 22.65625 15.3125 C 22.675781 14.964844 22.699219 14.621094 22.71875 14.273438 C 22.730469 14.09375 22.765625 13.925781 22.777344 13.746094 C 22.78125 13.6875 22.734375 13.640625 22.683594 13.621094 C 22.476562 13.550781 22.230469 13.460938 22.011719 13.53125 C 21.890625 13.566406 21.800781 13.65625 21.691406 13.683594 C 21.570312 13.714844 21.59375 13.914062 21.722656 13.902344 " fill-opacity="1" fill-rule="nonzero"/></g><g clip-path="url(#eda26a8bab)"><path fill="#7ed957" d="M 16.785156 21.933594 C 16.816406 21.882812 16.863281 21.832031 16.890625 21.78125 C 16.917969 21.71875 16.957031 21.660156 16.996094 21.605469 C 17.078125 21.492188 17.167969 21.386719 17.265625 21.289062 C 17.496094 21.066406 17.769531 20.890625 18.054688 20.738281 C 18.695312 20.382812 19.421875 20.164062 20.148438 20.074219 C 20.785156 19.992188 21.496094 19.984375 22.097656 20.246094 C 22.199219 20.289062 22.332031 20.21875 22.292969 20.09375 C 21.984375 19.035156 21.925781 17.925781 21.933594 16.824219 C 21.941406 16.308594 21.980469 15.789062 21.976562 15.273438 C 21.976562 14.871094 21.914062 14.46875 21.871094 14.070312 C 21.808594 13.433594 21.746094 12.636719 22.203125 12.125 C 22.285156 12.03125 22.222656 11.914062 22.109375 11.898438 C 20.195312 11.644531 18.171875 12.234375 16.730469 13.535156 C 16.6875 13.570312 16.648438 13.609375 16.609375 13.644531 C 16.457031 13.789062 16.6875 14.015625 16.835938 13.875 C 18.234375 12.542969 20.199219 11.917969 22.109375 12.164062 C 22.078125 12.085938 22.046875 12.011719 22.015625 11.9375 C 21.445312 12.589844 21.527344 13.496094 21.613281 14.296875 C 21.65625 14.691406 21.707031 15.082031 21.691406 15.476562 C 21.671875 16.023438 21.65625 16.574219 21.65625 17.125 C 21.664062 18.148438 21.75 19.179688 22.039062 20.167969 C 22.101562 20.117188 22.167969 20.066406 22.234375 20.015625 C 21.59375 19.738281 20.875 19.710938 20.191406 19.792969 C 19.441406 19.878906 18.703125 20.097656 18.027344 20.441406 C 17.695312 20.613281 17.382812 20.828125 17.113281 21.085938 C 16.996094 21.203125 16.890625 21.332031 16.800781 21.46875 C 16.757812 21.53125 16.726562 21.601562 16.691406 21.667969 C 16.660156 21.730469 16.65625 21.824219 16.648438 21.894531 C 16.636719 21.972656 16.753906 21.996094 16.785156 21.933594 " fill-opacity="1" fill-rule="nonzero"/></g><path fill="#7ed957" d="M 16.734375 13.820312 L 16.726562 13.820312 C 16.707031 13.820312 16.707031 13.851562 16.726562 13.851562 C 16.746094 13.851562 16.769531 13.851562 16.789062 13.851562 C 16.8125 13.851562 16.8125 13.820312 16.789062 13.820312 C 16.78125 13.820312 16.777344 13.820312 16.773438 13.828125 C 16.769531 13.832031 16.769531 13.839844 16.773438 13.84375 C 16.777344 13.851562 16.78125 13.851562 16.789062 13.851562 C 16.8125 13.851562 16.8125 13.820312 16.789062 13.820312 C 16.769531 13.820312 16.746094 13.820312 16.726562 13.820312 C 16.707031 13.820312 16.707031 13.851562 16.726562 13.851562 L 16.734375 13.851562 C 16.753906 13.851562 16.753906 13.820312 16.734375 13.820312 " fill-opacity="1" fill-rule="nonzero"/><path fill="#7ed957" d="M 16.695312 13.703125 C 16.621094 14.863281 16.820312 16.019531 16.84375 17.179688 C 16.851562 17.761719 16.847656 18.34375 16.820312 18.921875 C 16.800781 19.308594 16.765625 19.695312 16.734375 20.082031 C 16.710938 20.414062 16.683594 20.746094 16.667969 21.082031 C 16.652344 21.34375 16.628906 21.613281 16.648438 21.878906 C 16.65625 21.984375 16.824219 21.984375 16.8125 21.878906 C 16.78125 21.5625 16.804688 21.234375 16.824219 20.917969 C 16.851562 20.546875 16.882812 20.171875 16.925781 19.800781 C 17.050781 18.769531 17.058594 17.734375 16.996094 16.695312 C 16.933594 15.695312 16.835938 14.699219 16.765625 13.703125 C 16.761719 13.65625 16.699219 13.65625 16.695312 13.703125 " fill-opacity="1" fill-rule="nonzero"/><path fill="#7ed957" d="M 10.4375 14.546875 C 10.53125 14.574219 10.632812 14.570312 10.726562 14.574219 C 10.804688 14.578125 10.890625 14.582031 10.964844 14.566406 C 11.066406 14.542969 11.066406 14.386719 10.964844 14.363281 C 10.890625 14.347656 10.804688 14.351562 10.726562 14.355469 C 10.632812 14.359375 10.53125 14.351562 10.4375 14.382812 C 10.355469 14.40625 10.355469 14.523438 10.4375 14.546875 " fill-opacity="1" fill-rule="nonzero"/><path fill="#7ed957" d="M 22.683594 14.605469 C 22.746094 14.609375 22.800781 14.578125 22.835938 14.53125 C 22.8125 14.5625 22.789062 14.574219 22.75 14.582031 C 22.757812 14.578125 22.765625 14.582031 22.773438 14.582031 C 22.832031 14.582031 22.878906 14.59375 22.929688 14.558594 C 23.003906 14.515625 23.003906 14.414062 22.929688 14.367188 C 22.867188 14.328125 22.753906 14.339844 22.683594 14.371094 C 22.664062 14.378906 22.648438 14.402344 22.636719 14.421875 C 22.660156 14.386719 22.648438 14.402344 22.640625 14.414062 C 22.632812 14.421875 22.621094 14.429688 22.613281 14.4375 C 22.554688 14.503906 22.597656 14.597656 22.683594 14.605469 " fill-opacity="1" fill-rule="nonzero"/><path fill="#7ed957" d="M 10.4375 14.464844 C 10.441406 14.714844 10.480469 14.964844 10.488281 15.214844 C 10.5 15.480469 10.496094 15.742188 10.484375 16.007812 C 10.464844 16.53125 10.414062 17.054688 10.386719 17.578125 C 10.328125 18.730469 10.367188 19.886719 10.359375 21.042969 C 10.355469 21.304688 10.371094 21.566406 10.367188 21.832031 C 10.367188 21.949219 10.554688 21.949219 10.554688 21.832031 C 10.550781 21.253906 10.492188 20.675781 10.519531 20.097656 C 10.53125 19.808594 10.515625 19.511719 10.515625 19.222656 C 10.515625 18.933594 10.519531 18.640625 10.523438 18.351562 C 10.542969 17.285156 10.679688 16.21875 10.605469 15.152344 C 10.585938 14.917969 10.570312 14.679688 10.488281 14.457031 C 10.476562 14.429688 10.433594 14.433594 10.4375 14.464844 " fill-opacity="1" fill-rule="nonzero"/><path fill="#7ed957" d="M 10.441406 21.957031 C 10.890625 22.015625 11.34375 21.988281 11.796875 21.957031 C 12.269531 21.925781 12.738281 21.875 13.210938 21.832031 C 13.671875 21.792969 14.132812 21.757812 14.59375 21.753906 C 14.824219 21.75 15.050781 21.757812 15.277344 21.773438 C 15.394531 21.78125 15.511719 21.789062 15.632812 21.804688 C 15.746094 21.816406 15.855469 21.84375 15.972656 21.8125 C 16.046875 21.792969 16.050781 21.695312 15.992188 21.65625 C 15.902344 21.59375 15.800781 21.585938 15.695312 21.570312 C 15.578125 21.558594 15.460938 21.546875 15.34375 21.535156 C 15.113281 21.519531 14.886719 21.515625 14.660156 21.515625 C 14.1875 21.519531 13.714844 21.558594 13.246094 21.601562 C 12.773438 21.644531 12.300781 21.695312 11.828125 21.738281 C 11.367188 21.78125 10.902344 21.792969 10.441406 21.824219 C 10.355469 21.832031 10.359375 21.945312 10.441406 21.957031 " fill-opacity="1" fill-rule="nonzero"/><g clip-path="url(#b120f2cee8)"><path fill="#7ed957" d="M 15.8125 21.6875 C 15.800781 21.777344 15.898438 21.882812 15.957031 21.941406 C 16.039062 22.015625 16.125 22.085938 16.222656 22.140625 C 16.425781 22.25 16.667969 22.25 16.890625 22.214844 C 17.09375 22.183594 17.285156 22.089844 17.4375 21.957031 C 17.5625 21.847656 17.71875 21.574219 17.585938 21.425781 C 17.542969 21.378906 17.472656 21.398438 17.441406 21.441406 C 17.398438 21.507812 17.421875 21.59375 17.390625 21.664062 C 17.359375 21.730469 17.3125 21.78125 17.257812 21.828125 C 17.136719 21.929688 16.953125 21.964844 16.804688 21.988281 C 16.632812 22.015625 16.449219 22 16.292969 21.917969 C 16.214844 21.875 16.144531 21.816406 16.078125 21.757812 C 16.019531 21.707031 15.910156 21.636719 15.832031 21.660156 C 15.820312 21.664062 15.8125 21.675781 15.8125 21.6875 " fill-opacity="1" fill-rule="nonzero"/></g><g clip-path="url(#0e8ab823f7)"><path fill="#7ed957" d="M 17.5625 21.527344 C 17.746094 21.515625 17.925781 21.492188 18.109375 21.496094 C 18.308594 21.5 18.507812 21.519531 18.703125 21.527344 C 18.941406 21.535156 19.179688 21.515625 19.417969 21.507812 C 19.675781 21.503906 19.9375 21.496094 20.195312 21.503906 C 20.679688 21.519531 21.164062 21.546875 21.648438 21.578125 C 21.886719 21.59375 22.125 21.609375 22.363281 21.621094 C 22.492188 21.625 22.617188 21.628906 22.742188 21.632812 C 22.867188 21.636719 22.996094 21.644531 23.121094 21.609375 C 23.21875 21.578125 23.21875 21.4375 23.121094 21.40625 C 23.007812 21.375 22.890625 21.378906 22.777344 21.375 C 22.652344 21.371094 22.523438 21.367188 22.398438 21.359375 C 22.148438 21.347656 21.898438 21.328125 21.648438 21.3125 C 21.152344 21.28125 20.660156 21.253906 20.160156 21.253906 C 19.914062 21.257812 19.664062 21.257812 19.417969 21.265625 C 19.171875 21.273438 18.925781 21.292969 18.679688 21.285156 C 18.480469 21.28125 18.28125 21.265625 18.082031 21.265625 C 17.898438 21.265625 17.679688 21.269531 17.519531 21.378906 C 17.460938 21.417969 17.476562 21.535156 17.5625 21.527344 " fill-opacity="1" fill-rule="nonzero"/></g><g clip-path="url(#8a5b50cb90)"><path fill="#7ed957" d="M 22.882812 14.429688 C 22.828125 14.691406 22.863281 14.984375 22.898438 15.25 C 22.933594 15.527344 22.984375 15.800781 23.023438 16.074219 C 23.105469 16.640625 23.109375 17.21875 23.121094 17.789062 C 23.132812 18.359375 23.167969 18.933594 23.152344 19.503906 C 23.144531 19.789062 23.121094 20.070312 23.078125 20.347656 C 23.058594 20.484375 23.046875 20.621094 23.03125 20.761719 C 23.015625 20.886719 22.996094 21.015625 22.992188 21.144531 C 22.988281 21.214844 22.980469 21.285156 22.976562 21.359375 C 22.972656 21.402344 22.96875 21.445312 22.980469 21.488281 C 22.984375 21.5 22.988281 21.507812 22.992188 21.519531 C 23.007812 21.570312 22.988281 21.546875 22.992188 21.507812 C 22.984375 21.636719 23.183594 21.636719 23.191406 21.507812 L 23.191406 21.503906 C 23.183594 21.527344 23.171875 21.550781 23.164062 21.574219 C 23.253906 21.480469 23.230469 21.285156 23.238281 21.164062 C 23.246094 20.917969 23.273438 20.660156 23.308594 20.410156 C 23.390625 19.847656 23.402344 19.285156 23.375 18.714844 C 23.347656 18.140625 23.347656 17.566406 23.320312 16.992188 C 23.304688 16.710938 23.285156 16.425781 23.25 16.144531 C 23.210938 15.867188 23.160156 15.597656 23.109375 15.324219 C 23.085938 15.179688 23.066406 15.035156 23.042969 14.894531 C 23.023438 14.738281 23.019531 14.582031 22.996094 14.429688 C 22.988281 14.367188 22.894531 14.371094 22.882812 14.429688 " fill-opacity="1" fill-rule="nonzero"/></g><path fill="#7ed957" d="M 10.46875 14.460938 C 10.378906 14.425781 10.277344 14.511719 10.214844 14.570312 C 10.148438 14.628906 10.007812 14.722656 10.019531 14.828125 C 10.023438 14.847656 10.035156 14.871094 10.058594 14.875 C 10.164062 14.898438 10.25 14.777344 10.316406 14.710938 C 10.382812 14.648438 10.480469 14.578125 10.488281 14.484375 C 10.488281 14.472656 10.480469 14.464844 10.46875 14.460938 " fill-opacity="1" fill-rule="nonzero"/><g clip-path="url(#ae297a52d6)"><path fill="#7ed957" d="M 10.019531 14.769531 C 9.898438 14.972656 9.886719 15.238281 9.882812 15.46875 C 9.875 15.730469 9.90625 15.992188 9.921875 16.25 C 9.957031 16.808594 9.929688 17.371094 9.914062 17.929688 C 9.910156 18.222656 9.902344 18.511719 9.894531 18.804688 C 9.890625 19.097656 9.871094 19.390625 9.871094 19.683594 C 9.875 20.125 9.917969 20.570312 9.902344 21.007812 C 9.890625 21.273438 9.882812 21.535156 9.878906 21.796875 C 9.875 21.914062 9.875 22.035156 9.878906 22.15625 C 9.882812 22.238281 9.882812 22.351562 9.964844 22.398438 C 9.945312 22.375 9.929688 22.351562 9.910156 22.324219 C 9.910156 22.332031 9.910156 22.339844 9.910156 22.34375 C 9.921875 22.414062 10 22.4375 10.058594 22.429688 C 10.125 22.417969 10.144531 22.375 10.175781 22.324219 C 10.214844 22.265625 10.261719 22.214844 10.308594 22.164062 C 10.398438 22.066406 10.515625 21.988281 10.609375 21.890625 C 10.6875 21.8125 10.566406 21.691406 10.488281 21.769531 C 10.324219 21.9375 10.132812 22.066406 9.964844 22.230469 C 10.003906 22.21875 10.042969 22.210938 10.078125 22.199219 C 10.074219 22.199219 10.066406 22.199219 10.058594 22.199219 C 10.085938 22.246094 10.113281 22.296875 10.140625 22.34375 C 10.148438 22.292969 10.152344 22.246094 10.113281 22.207031 C 10.121094 22.214844 10.140625 22.265625 10.132812 22.230469 C 10.125 22.191406 10.132812 22.246094 10.128906 22.207031 C 10.125 22.183594 10.125 22.15625 10.125 22.128906 C 10.117188 21.996094 10.117188 21.859375 10.121094 21.722656 C 10.125 21.457031 10.140625 21.195312 10.148438 20.929688 C 10.15625 20.714844 10.136719 20.5 10.128906 20.285156 C 10.121094 19.988281 10.121094 19.695312 10.117188 19.402344 C 10.113281 18.816406 10.144531 18.234375 10.152344 17.648438 C 10.160156 17.152344 10.175781 16.652344 10.132812 16.160156 C 10.113281 15.929688 10.097656 15.699219 10.082031 15.46875 C 10.066406 15.242188 10.089844 15.015625 10.082031 14.785156 C 10.082031 14.753906 10.035156 14.738281 10.019531 14.769531 " fill-opacity="1" fill-rule="nonzero"/></g><g clip-path="url(#f711a5334b)"><path fill="#7ed957" d="M 10.003906 22.472656 C 10.234375 22.496094 10.476562 22.46875 10.707031 22.453125 C 10.941406 22.4375 11.179688 22.421875 11.414062 22.40625 C 11.882812 22.375 12.355469 22.347656 12.824219 22.320312 C 13.296875 22.296875 13.765625 22.277344 14.238281 22.261719 C 14.707031 22.25 15.175781 22.230469 15.644531 22.273438 C 15.722656 22.277344 15.78125 22.191406 15.761719 22.121094 C 15.726562 22.015625 15.769531 21.949219 15.828125 21.863281 C 15.863281 21.808594 15.796875 21.742188 15.742188 21.777344 C 15.621094 21.855469 15.535156 22.003906 15.523438 22.152344 C 15.566406 22.113281 15.605469 22.074219 15.644531 22.03125 C 15.175781 22.0625 14.707031 22.058594 14.238281 22.074219 C 13.765625 22.085938 13.296875 22.109375 12.824219 22.136719 C 12.355469 22.164062 11.882812 22.199219 11.414062 22.230469 C 11.179688 22.246094 10.941406 22.265625 10.707031 22.28125 C 10.472656 22.296875 10.21875 22.300781 9.988281 22.355469 C 9.917969 22.371094 9.941406 22.46875 10.003906 22.472656 " fill-opacity="1" fill-rule="nonzero"/></g><g clip-path="url(#004ae3972f)"><path fill="#7ed957" d="M 15.574219 22.199219 C 15.652344 22.328125 15.832031 22.402344 15.964844 22.464844 C 16.140625 22.546875 16.328125 22.609375 16.519531 22.652344 C 16.703125 22.695312 16.898438 22.703125 17.082031 22.664062 C 17.234375 22.628906 17.410156 22.519531 17.492188 22.390625 C 17.535156 22.320312 17.4375 22.246094 17.378906 22.300781 C 17.328125 22.355469 17.28125 22.398438 17.214844 22.433594 C 17.15625 22.464844 17.066406 22.46875 17 22.476562 C 16.835938 22.492188 16.667969 22.460938 16.511719 22.425781 C 16.34375 22.386719 16.183594 22.328125 16.023438 22.265625 C 15.894531 22.214844 15.761719 22.125 15.625 22.113281 C 15.578125 22.109375 15.550781 22.167969 15.574219 22.199219 " fill-opacity="1" fill-rule="nonzero"/></g><g clip-path="url(#42169ea0f7)"><path fill="#7ed957" d="M 17.550781 21.492188 C 17.53125 21.550781 17.527344 21.613281 17.515625 21.671875 C 17.503906 21.746094 17.480469 21.816406 17.460938 21.886719 C 17.421875 22.03125 17.375 22.171875 17.347656 22.320312 C 17.335938 22.367188 17.359375 22.421875 17.410156 22.433594 C 17.417969 22.433594 17.425781 22.433594 17.433594 22.433594 C 17.472656 22.4375 17.519531 22.40625 17.523438 22.367188 C 17.550781 22.222656 17.589844 22.078125 17.621094 21.929688 C 17.652344 21.800781 17.703125 21.625 17.65625 21.492188 C 17.640625 21.441406 17.570312 21.445312 17.550781 21.492188 " fill-opacity="1" fill-rule="nonzero"/></g><g clip-path="url(#663d1439b1)"><path fill="#7ed957" d="M 17.484375 22.328125 C 17.71875 22.375 17.964844 22.367188 18.203125 22.367188 C 18.460938 22.371094 18.71875 22.371094 18.980469 22.375 C 19.460938 22.378906 19.941406 22.375 20.421875 22.390625 C 20.839844 22.402344 21.261719 22.433594 21.683594 22.414062 C 21.890625 22.402344 22.101562 22.382812 22.304688 22.34375 C 22.476562 22.3125 22.71875 22.28125 22.835938 22.140625 C 22.875 22.09375 22.847656 22.03125 22.789062 22.023438 C 22.699219 22.015625 22.621094 22.042969 22.539062 22.066406 C 22.441406 22.09375 22.34375 22.113281 22.246094 22.128906 C 22.042969 22.167969 21.832031 22.175781 21.625 22.183594 C 21.214844 22.195312 20.804688 22.175781 20.394531 22.164062 C 19.921875 22.152344 19.449219 22.171875 18.980469 22.1875 C 18.730469 22.195312 18.484375 22.203125 18.238281 22.210938 C 17.988281 22.214844 17.730469 22.210938 17.484375 22.257812 C 17.449219 22.265625 17.449219 22.324219 17.484375 22.328125 " fill-opacity="1" fill-rule="nonzero"/></g><g clip-path="url(#2a950548cc)"><path fill="#7ed957" d="M 23.074219 21.445312 C 22.847656 21.480469 22.707031 21.835938 22.671875 22.03125 C 22.660156 22.085938 22.679688 22.144531 22.730469 22.175781 C 22.785156 22.207031 22.878906 22.191406 22.90625 22.128906 C 22.953125 22.023438 22.976562 21.910156 23.015625 21.800781 C 23.054688 21.707031 23.121094 21.625 23.15625 21.523438 C 23.171875 21.472656 23.121094 21.4375 23.074219 21.445312 " fill-opacity="1" fill-rule="nonzero"/></g><g fill="#000000" fill-opacity="1"><g transform="translate(6.717317, 14.545526)"><g><path d="M -2.109375 -1.328125 L -0.078125 -0.640625 L 0.3125 -1.78125 L 0.578125 -1.6875 L 0.09375 -0.25 L -2.203125 -1.03125 Z M -2.109375 -1.328125 "/></g></g></g><g fill="#000000" fill-opacity="1"><g transform="translate(7.478017, 12.52427)"><g><path d="M -1.8125 -1.71875 L 0.3125 -0.5625 L 0.15625 -0.28125 L -1.96875 -1.4375 Z M -1.8125 -1.71875 "/></g></g></g><g fill="#000000" fill-opacity="1"><g transform="translate(8.030896, 11.434923)"><g><path d="M 0.78125 -2.0625 C 0.9375 -1.925781 1.019531 -1.765625 1.03125 -1.578125 C 1.050781 -1.398438 0.992188 -1.226562 0.859375 -1.0625 L 0.171875 -0.203125 L -1.71875 -1.71875 L -1.109375 -2.484375 C -1.035156 -2.566406 -0.960938 -2.632812 -0.890625 -2.6875 C -0.816406 -2.738281 -0.75 -2.769531 -0.6875 -2.78125 C -0.625 -2.800781 -0.554688 -2.804688 -0.484375 -2.796875 C -0.421875 -2.785156 -0.363281 -2.769531 -0.3125 -2.75 C -0.257812 -2.726562 -0.210938 -2.703125 -0.171875 -2.671875 C 0.015625 -2.515625 0.078125 -2.3125 0.015625 -2.0625 C 0.171875 -2.15625 0.304688 -2.195312 0.421875 -2.1875 C 0.546875 -2.1875 0.664062 -2.144531 0.78125 -2.0625 Z M -0.328125 -2.390625 C -0.378906 -2.429688 -0.4375 -2.460938 -0.5 -2.484375 C -0.5625 -2.503906 -0.617188 -2.503906 -0.671875 -2.484375 C -0.722656 -2.460938 -0.769531 -2.4375 -0.8125 -2.40625 C -0.851562 -2.375 -0.894531 -2.328125 -0.9375 -2.265625 L -1.3125 -1.8125 L -0.703125 -1.3125 L -0.328125 -1.765625 C -0.222656 -1.890625 -0.171875 -2.003906 -0.171875 -2.109375 C -0.171875 -2.210938 -0.222656 -2.304688 -0.328125 -2.390625 Z M 0.609375 -1.203125 C 0.660156 -1.265625 0.691406 -1.328125 0.703125 -1.390625 C 0.722656 -1.453125 0.726562 -1.507812 0.71875 -1.5625 C 0.707031 -1.613281 0.6875 -1.660156 0.65625 -1.703125 C 0.632812 -1.742188 0.609375 -1.78125 0.578125 -1.8125 C 0.472656 -1.882812 0.367188 -1.914062 0.265625 -1.90625 C 0.160156 -1.894531 0.0625 -1.835938 -0.03125 -1.734375 L -0.5 -1.15625 L 0.140625 -0.625 Z M 0.609375 -1.203125 "/></g></g></g><g fill="#000000" fill-opacity="1"><g transform="translate(9.573219, 9.547927)"><g><path d="M 0.703125 -2.046875 C 0.785156 -2.046875 0.863281 -2.039062 0.9375 -2.03125 C 1.007812 -2.019531 1.070312 -2 1.125 -1.96875 C 1.175781 -1.9375 1.222656 -1.894531 1.265625 -1.84375 C 1.304688 -1.800781 1.34375 -1.75 1.375 -1.6875 C 1.40625 -1.632812 1.4375 -1.585938 1.46875 -1.546875 C 1.507812 -1.515625 1.550781 -1.484375 1.59375 -1.453125 C 1.644531 -1.421875 1.703125 -1.410156 1.765625 -1.421875 L 1.8125 -1.359375 L 1.515625 -1.140625 C 1.410156 -1.191406 1.3125 -1.28125 1.21875 -1.40625 L 1.09375 -1.578125 C 1 -1.703125 0.90625 -1.773438 0.8125 -1.796875 C 0.71875 -1.816406 0.617188 -1.785156 0.515625 -1.703125 L -0.125 -1.21875 L 0.5 -0.375 L 0.25 -0.1875 L -1.203125 -2.125 L -0.3125 -2.796875 C -0.125 -2.941406 0.0507812 -3.007812 0.21875 -3 C 0.382812 -2.988281 0.53125 -2.898438 0.65625 -2.734375 C 0.75 -2.617188 0.796875 -2.503906 0.796875 -2.390625 C 0.796875 -2.273438 0.765625 -2.160156 0.703125 -2.046875 Z M 0.421875 -2.5 C 0.367188 -2.5625 0.316406 -2.609375 0.265625 -2.640625 C 0.210938 -2.671875 0.160156 -2.679688 0.109375 -2.671875 C 0.0546875 -2.671875 0.00390625 -2.660156 -0.046875 -2.640625 C -0.0976562 -2.617188 -0.148438 -2.582031 -0.203125 -2.53125 L -0.796875 -2.09375 L -0.296875 -1.421875 L 0.296875 -1.859375 C 0.421875 -1.960938 0.492188 -2.066406 0.515625 -2.171875 C 0.546875 -2.273438 0.515625 -2.382812 0.421875 -2.5 Z M 0.421875 -2.5 "/></g></g></g><g fill="#000000" fill-opacity="1"><g transform="translate(11.660755, 7.993548)"><g><path d="M 1.859375 -2.015625 C 1.921875 -1.847656 1.953125 -1.679688 1.953125 -1.515625 C 1.960938 -1.359375 1.941406 -1.207031 1.890625 -1.0625 C 1.847656 -0.925781 1.769531 -0.796875 1.65625 -0.671875 C 1.539062 -0.554688 1.398438 -0.46875 1.234375 -0.40625 C 0.898438 -0.269531 0.585938 -0.269531 0.296875 -0.40625 C 0.015625 -0.550781 -0.191406 -0.800781 -0.328125 -1.15625 C -0.472656 -1.507812 -0.488281 -1.832031 -0.375 -2.125 C -0.269531 -2.425781 -0.0507812 -2.644531 0.28125 -2.78125 C 0.613281 -2.914062 0.921875 -2.910156 1.203125 -2.765625 C 1.492188 -2.628906 1.710938 -2.378906 1.859375 -2.015625 Z M 0.390625 -2.515625 C 0.148438 -2.421875 -0.00390625 -2.253906 -0.078125 -2.015625 C -0.160156 -1.785156 -0.144531 -1.535156 -0.03125 -1.265625 C 0.0703125 -0.992188 0.226562 -0.800781 0.4375 -0.6875 C 0.65625 -0.582031 0.882812 -0.578125 1.125 -0.671875 C 1.363281 -0.765625 1.519531 -0.921875 1.59375 -1.140625 C 1.675781 -1.367188 1.664062 -1.617188 1.5625 -1.890625 C 1.445312 -2.171875 1.28125 -2.367188 1.0625 -2.484375 C 0.851562 -2.597656 0.628906 -2.609375 0.390625 -2.515625 Z M 0.390625 -2.515625 "/></g></g></g><g fill="#000000" fill-opacity="1"><g transform="translate(14.350958, 7.02991)"><g/></g></g><g fill="#000000" fill-opacity="1"><g transform="translate(15.535133, 6.765793)"><g><path d="M 0.171875 -1.1875 C 0.171875 -1.257812 0.175781 -1.332031 0.1875 -1.40625 C 0.195312 -1.488281 0.210938 -1.570312 0.234375 -1.65625 C 0.265625 -1.738281 0.296875 -1.816406 0.328125 -1.890625 C 0.367188 -1.972656 0.414062 -2.046875 0.46875 -2.109375 C 0.53125 -2.179688 0.597656 -2.242188 0.671875 -2.296875 C 0.742188 -2.347656 0.832031 -2.390625 0.9375 -2.421875 C 1.039062 -2.453125 1.15625 -2.460938 1.28125 -2.453125 C 1.8125 -2.453125 2.125 -2.1875 2.21875 -1.65625 L 1.90625 -1.65625 C 1.863281 -1.832031 1.789062 -1.960938 1.6875 -2.046875 C 1.582031 -2.128906 1.4375 -2.171875 1.25 -2.171875 C 1.007812 -2.179688 0.820312 -2.097656 0.6875 -1.921875 C 0.550781 -1.742188 0.484375 -1.5 0.484375 -1.1875 C 0.472656 -0.882812 0.535156 -0.644531 0.671875 -0.46875 C 0.816406 -0.289062 1.007812 -0.195312 1.25 -0.1875 C 1.457031 -0.1875 1.613281 -0.238281 1.71875 -0.34375 C 1.820312 -0.457031 1.894531 -0.632812 1.9375 -0.875 L 2.25 -0.875 C 2.175781 -0.226562 1.84375 0.09375 1.25 0.09375 C 1.113281 0.0820312 0.988281 0.0546875 0.875 0.015625 C 0.757812 -0.0234375 0.660156 -0.078125 0.578125 -0.140625 C 0.503906 -0.210938 0.4375 -0.285156 0.375 -0.359375 C 0.320312 -0.441406 0.28125 -0.53125 0.25 -0.625 C 0.21875 -0.726562 0.191406 -0.820312 0.171875 -0.90625 C 0.160156 -1 0.160156 -1.09375 0.171875 -1.1875 Z M 0.171875 -1.1875 "/></g></g></g><g fill="#000000" fill-opacity="1"><g transform="translate(18.152746, 6.821151)"><g><path d="M 0.875 -0.921875 L 0.671875 -0.109375 L 2.0625 0.25 L 1.984375 0.515625 L 0.28125 0.078125 L 0.890625 -2.265625 L 2.53125 -1.84375 L 2.46875 -1.59375 L 1.140625 -1.9375 L 0.9375 -1.171875 L 2.21875 -0.84375 L 2.15625 -0.59375 Z M 0.875 -0.921875 "/></g></g></g><g fill="#000000" fill-opacity="1"><g transform="translate(20.508303, 7.44704)"><g><path d="M 3.046875 -1.09375 L 1.890625 1.03125 L 1.578125 0.859375 L 1.421875 -1.46875 L 0.484375 0.265625 L 0.21875 0.125 L 1.375 -2 L 1.671875 -1.84375 L 1.828125 0.5 L 2.78125 -1.234375 Z M 3.046875 -1.09375 "/></g></g></g><g fill="#000000" fill-opacity="1"><g transform="translate(22.789232, 8.749468)"><g><path d="M 2.3125 -0.796875 L 0.859375 0.796875 L 0.640625 0.59375 L 2.09375 -1 L 1.5 -1.546875 L 1.671875 -1.75 L 3.078125 -0.46875 L 2.90625 -0.265625 Z M 2.3125 -0.796875 "/></g></g></g><g fill="#000000" fill-opacity="1"><g transform="translate(24.455031, 10.289925)"><g><path d="M 1.265625 -0.125 L 0.578125 0.34375 L 1.390625 1.53125 L 1.15625 1.6875 L 0.171875 0.25 L 2.171875 -1.125 L 3.125 0.265625 L 2.90625 0.421875 L 2.125 -0.71875 L 1.484375 -0.28125 L 2.234375 0.8125 L 2.015625 0.96875 Z M 1.265625 -0.125 "/></g></g></g><g fill="#000000" fill-opacity="1"><g transform="translate(25.821127, 12.308118)"><g><path d="M 1.75 1.25 C 1.726562 1.34375 1.703125 1.421875 1.671875 1.484375 C 1.648438 1.554688 1.613281 1.609375 1.5625 1.640625 C 1.519531 1.679688 1.46875 1.710938 1.40625 1.734375 C 1.351562 1.765625 1.296875 1.785156 1.234375 1.796875 C 1.171875 1.816406 1.113281 1.835938 1.0625 1.859375 C 1.019531 1.890625 0.976562 1.921875 0.9375 1.953125 C 0.90625 1.984375 0.878906 2.03125 0.859375 2.09375 L 0.78125 2.125 L 0.65625 1.765625 C 0.726562 1.691406 0.835938 1.625 0.984375 1.5625 L 1.203125 1.484375 C 1.347656 1.429688 1.441406 1.363281 1.484375 1.28125 C 1.523438 1.207031 1.523438 1.101562 1.484375 0.96875 L 1.203125 0.234375 L 0.21875 0.59375 L 0.109375 0.296875 L 2.375 -0.546875 L 2.765625 0.484375 C 2.847656 0.710938 2.859375 0.90625 2.796875 1.0625 C 2.742188 1.226562 2.617188 1.34375 2.421875 1.40625 C 2.285156 1.457031 2.164062 1.46875 2.0625 1.4375 C 1.957031 1.414062 1.851562 1.351562 1.75 1.25 Z M 2.265625 1.140625 C 2.347656 1.109375 2.410156 1.066406 2.453125 1.015625 C 2.492188 0.972656 2.519531 0.925781 2.53125 0.875 C 2.539062 0.820312 2.539062 0.765625 2.53125 0.703125 C 2.53125 0.648438 2.515625 0.59375 2.484375 0.53125 L 2.234375 -0.15625 L 1.453125 0.140625 L 1.703125 0.828125 C 1.765625 0.984375 1.835938 1.082031 1.921875 1.125 C 2.015625 1.175781 2.128906 1.179688 2.265625 1.140625 Z M 2.265625 1.140625 "/></g></g></g><g fill="#000000" fill-opacity="1"><g transform="translate(4.393214, 20.297234)"><g><path d="M 0.3125 0.578125 C 0.320312 0.628906 0.335938 0.671875 0.359375 0.703125 C 0.390625 0.742188 0.414062 0.769531 0.4375 0.78125 C 0.457031 0.800781 0.484375 0.816406 0.515625 0.828125 C 0.546875 0.835938 0.570312 0.835938 0.59375 0.828125 C 0.613281 0.828125 0.632812 0.828125 0.65625 0.828125 C 0.707031 0.804688 0.742188 0.769531 0.765625 0.71875 C 0.785156 0.675781 0.789062 0.609375 0.78125 0.515625 L 0.765625 0.171875 C 0.753906 -0.015625 0.828125 -0.132812 0.984375 -0.1875 C 1.097656 -0.226562 1.203125 -0.21875 1.296875 -0.15625 C 1.390625 -0.09375 1.460938 0.0078125 1.515625 0.15625 C 1.554688 0.300781 1.554688 0.421875 1.515625 0.515625 C 1.472656 0.617188 1.394531 0.695312 1.28125 0.75 L 1.21875 0.59375 C 1.289062 0.570312 1.34375 0.523438 1.375 0.453125 C 1.414062 0.378906 1.414062 0.289062 1.375 0.1875 C 1.34375 0.09375 1.296875 0.03125 1.234375 0 C 1.171875 -0.03125 1.113281 -0.0351562 1.0625 -0.015625 C 1.007812 -0.00390625 0.972656 0.0195312 0.953125 0.0625 C 0.929688 0.101562 0.925781 0.164062 0.9375 0.25 L 0.96875 0.609375 C 0.96875 0.703125 0.945312 0.78125 0.90625 0.84375 C 0.863281 0.914062 0.804688 0.960938 0.734375 0.984375 C 0.691406 1.003906 0.648438 1.015625 0.609375 1.015625 C 0.578125 1.015625 0.535156 1.007812 0.484375 1 C 0.441406 0.988281 0.398438 0.96875 0.359375 0.9375 C 0.328125 0.914062 0.289062 0.875 0.25 0.8125 C 0.207031 0.757812 0.175781 0.691406 0.15625 0.609375 C 0.132812 0.554688 0.117188 0.503906 0.109375 0.453125 C 0.109375 0.410156 0.109375 0.363281 0.109375 0.3125 C 0.117188 0.257812 0.132812 0.207031 0.15625 0.15625 C 0.175781 0.113281 0.210938 0.0703125 0.265625 0.03125 C 0.316406 0 0.378906 -0.0234375 0.453125 -0.046875 L 0.5 0.09375 L 0.484375 0.09375 C 0.453125 0.101562 0.421875 0.125 0.390625 0.15625 C 0.359375 0.1875 0.332031 0.21875 0.3125 0.25 C 0.289062 0.289062 0.28125 0.335938 0.28125 0.390625 C 0.28125 0.441406 0.289062 0.503906 0.3125 0.578125 Z M 0.3125 0.578125 "/></g></g></g><g fill="#000000" fill-opacity="1"><g transform="translate(4.932236, 21.808282)"><g><path d="M 1.390625 -0.234375 L 0.140625 0.328125 L 0.078125 0.171875 L 1.328125 -0.390625 Z M 1.390625 -0.234375 "/></g></g></g><g fill="#000000" fill-opacity="1"><g transform="translate(5.288613, 22.616028)"><g><path d="M 1.796875 0.375 L 0.609375 1.0625 L 0.5 0.875 L 1.125 -0.28125 L 0.15625 0.265625 L 0.0625 0.125 L 1.25 -0.5625 L 1.34375 -0.40625 L 0.734375 0.78125 L 1.703125 0.21875 Z M 1.796875 0.375 "/></g></g></g><g fill="#000000" fill-opacity="1"><g transform="translate(6.174788, 24.107713)"><g><path d="M 0.59375 -0.328125 C 0.625 -0.359375 0.65625 -0.382812 0.6875 -0.40625 C 0.726562 -0.425781 0.769531 -0.445312 0.8125 -0.46875 C 0.863281 -0.488281 0.910156 -0.503906 0.953125 -0.515625 C 1.003906 -0.535156 1.050781 -0.539062 1.09375 -0.53125 C 1.144531 -0.519531 1.195312 -0.507812 1.25 -0.5 C 1.300781 -0.488281 1.347656 -0.460938 1.390625 -0.421875 C 1.441406 -0.378906 1.488281 -0.332031 1.53125 -0.28125 C 1.707031 -0.0390625 1.691406 0.1875 1.484375 0.40625 L 1.390625 0.265625 C 1.453125 0.179688 1.488281 0.101562 1.5 0.03125 C 1.507812 -0.03125 1.476562 -0.109375 1.40625 -0.203125 C 1.332031 -0.304688 1.226562 -0.359375 1.09375 -0.359375 C 0.957031 -0.367188 0.820312 -0.316406 0.6875 -0.203125 C 0.550781 -0.0976562 0.46875 0.015625 0.4375 0.140625 C 0.414062 0.265625 0.445312 0.382812 0.53125 0.5 C 0.59375 0.582031 0.664062 0.628906 0.75 0.640625 C 0.84375 0.648438 0.945312 0.617188 1.0625 0.546875 L 1.171875 0.6875 C 0.859375 0.882812 0.601562 0.851562 0.40625 0.59375 C 0.351562 0.53125 0.3125 0.460938 0.28125 0.390625 C 0.257812 0.328125 0.25 0.265625 0.25 0.203125 C 0.257812 0.140625 0.273438 0.0820312 0.296875 0.03125 C 0.316406 -0.0078125 0.335938 -0.0507812 0.359375 -0.09375 C 0.390625 -0.144531 0.425781 -0.1875 0.46875 -0.21875 C 0.507812 -0.257812 0.550781 -0.296875 0.59375 -0.328125 Z M 0.59375 -0.328125 "/></g></g></g><g fill="#000000" fill-opacity="1"><g transform="translate(7.256032, 25.460675)"><g><path d="M 0.6875 -0.203125 L 0.359375 0.125 L 0.9375 0.703125 L 0.828125 0.8125 L 0.125 0.125 L 1.09375 -0.859375 L 1.75 -0.203125 L 1.640625 -0.078125 L 1.109375 -0.625 L 0.796875 -0.328125 L 1.328125 0.203125 L 1.21875 0.328125 Z M 0.6875 -0.203125 "/></g></g></g><g fill="#000000" fill-opacity="1"><g transform="translate(8.420786, 26.564067)"><g/></g></g><g fill="#000000" fill-opacity="1"><g transform="translate(9.101231, 27.111492)"><g><path d="M 0.9375 -0.53125 L 0.6875 -0.6875 L 0.75 -0.765625 C 0.800781 -0.742188 0.835938 -0.726562 0.859375 -0.71875 C 0.878906 -0.71875 0.898438 -0.710938 0.921875 -0.703125 C 0.953125 -0.691406 0.976562 -0.6875 1 -0.6875 C 1.019531 -0.6875 1.039062 -0.691406 1.0625 -0.703125 C 1.082031 -0.710938 1.101562 -0.722656 1.125 -0.734375 C 1.144531 -0.753906 1.171875 -0.769531 1.203125 -0.78125 L 1.296875 -0.734375 L 0.546875 0.359375 L 0.40625 0.265625 Z M 0.9375 -0.53125 "/></g></g></g><g fill="#000000" fill-opacity="1"><g transform="translate(10.27893, 27.880707)"><g><path d="M 1.15625 -0.171875 C 1.101562 -0.0546875 1.046875 0.03125 0.984375 0.09375 C 0.929688 0.164062 0.875 0.21875 0.8125 0.25 C 0.757812 0.289062 0.707031 0.3125 0.65625 0.3125 C 0.601562 0.3125 0.554688 0.304688 0.515625 0.296875 C 0.484375 0.296875 0.445312 0.285156 0.40625 0.265625 C 0.320312 0.222656 0.257812 0.15625 0.21875 0.0625 C 0.1875 -0.0195312 0.1875 -0.113281 0.21875 -0.21875 L 0.375 -0.140625 C 0.351562 -0.0859375 0.351562 -0.0351562 0.375 0.015625 C 0.394531 0.0664062 0.425781 0.101562 0.46875 0.125 C 0.550781 0.175781 0.632812 0.175781 0.71875 0.125 C 0.8125 0.0703125 0.894531 -0.03125 0.96875 -0.1875 C 0.914062 -0.15625 0.859375 -0.140625 0.796875 -0.140625 C 0.742188 -0.140625 0.6875 -0.15625 0.625 -0.1875 C 0.519531 -0.238281 0.453125 -0.316406 0.421875 -0.421875 C 0.398438 -0.535156 0.414062 -0.644531 0.46875 -0.75 C 0.53125 -0.863281 0.613281 -0.9375 0.71875 -0.96875 C 0.832031 -1.007812 0.941406 -1 1.046875 -0.9375 C 1.117188 -0.894531 1.175781 -0.847656 1.21875 -0.796875 C 1.257812 -0.742188 1.28125 -0.679688 1.28125 -0.609375 C 1.289062 -0.546875 1.285156 -0.476562 1.265625 -0.40625 C 1.242188 -0.332031 1.207031 -0.253906 1.15625 -0.171875 Z M 1.125 -0.640625 C 1.101562 -0.710938 1.054688 -0.765625 0.984375 -0.796875 C 0.921875 -0.835938 0.851562 -0.847656 0.78125 -0.828125 C 0.707031 -0.804688 0.648438 -0.757812 0.609375 -0.6875 C 0.578125 -0.601562 0.566406 -0.53125 0.578125 -0.46875 C 0.597656 -0.40625 0.644531 -0.351562 0.71875 -0.3125 C 0.789062 -0.269531 0.863281 -0.257812 0.9375 -0.28125 C 1.007812 -0.300781 1.0625 -0.351562 1.09375 -0.4375 C 1.132812 -0.507812 1.144531 -0.578125 1.125 -0.640625 Z M 1.125 -0.640625 "/></g></g></g><g fill="#000000" fill-opacity="1"><g transform="translate(11.534595, 28.514716)"><g><path d="M 1.140625 -0.296875 C 1.097656 -0.179688 1.046875 -0.0820312 0.984375 0 C 0.929688 0.0703125 0.882812 0.125 0.84375 0.15625 C 0.800781 0.1875 0.75 0.207031 0.6875 0.21875 C 0.632812 0.238281 0.585938 0.25 0.546875 0.25 C 0.515625 0.25 0.472656 0.238281 0.421875 0.21875 C 0.335938 0.1875 0.269531 0.128906 0.21875 0.046875 C 0.175781 -0.0351562 0.171875 -0.132812 0.203125 -0.25 L 0.359375 -0.1875 C 0.347656 -0.113281 0.351562 -0.0546875 0.375 -0.015625 C 0.40625 0.015625 0.445312 0.0390625 0.5 0.0625 C 0.582031 0.101562 0.660156 0.09375 0.734375 0.03125 C 0.816406 -0.0195312 0.890625 -0.125 0.953125 -0.28125 C 0.890625 -0.25 0.832031 -0.226562 0.78125 -0.21875 C 0.726562 -0.21875 0.675781 -0.226562 0.625 -0.25 C 0.507812 -0.289062 0.429688 -0.363281 0.390625 -0.46875 C 0.347656 -0.570312 0.347656 -0.675781 0.390625 -0.78125 C 0.441406 -0.90625 0.519531 -0.992188 0.625 -1.046875 C 0.726562 -1.097656 0.835938 -1.097656 0.953125 -1.046875 C 1.023438 -1.015625 1.082031 -0.976562 1.125 -0.9375 C 1.175781 -0.894531 1.207031 -0.835938 1.21875 -0.765625 C 1.226562 -0.691406 1.222656 -0.613281 1.203125 -0.53125 C 1.191406 -0.457031 1.171875 -0.378906 1.140625 -0.296875 Z M 1.0625 -0.765625 C 1.03125 -0.835938 0.976562 -0.890625 0.90625 -0.921875 C 0.832031 -0.953125 0.757812 -0.953125 0.6875 -0.921875 C 0.625 -0.890625 0.578125 -0.832031 0.546875 -0.75 C 0.515625 -0.675781 0.507812 -0.601562 0.53125 -0.53125 C 0.550781 -0.457031 0.601562 -0.40625 0.6875 -0.375 C 0.757812 -0.34375 0.832031 -0.34375 0.90625 -0.375 C 0.976562 -0.414062 1.03125 -0.472656 1.0625 -0.546875 C 1.09375 -0.628906 1.09375 -0.703125 1.0625 -0.765625 Z M 1.0625 -0.765625 "/></g></g></g><g fill="#000000" fill-opacity="1"><g transform="translate(12.85277, 29.005716)"><g><path d="M 1.28125 -1.03125 L 1.25 -0.890625 C 1.050781 -0.742188 0.882812 -0.585938 0.75 -0.421875 C 0.613281 -0.253906 0.503906 -0.078125 0.421875 0.109375 L 0.25 0.0625 C 0.34375 -0.132812 0.453125 -0.300781 0.578125 -0.4375 C 0.703125 -0.582031 0.867188 -0.742188 1.078125 -0.921875 L 0.390625 -1.09375 L 0.4375 -1.25 Z M 1.28125 -1.03125 "/></g></g></g><g fill="#000000" fill-opacity="1"><g transform="translate(14.204022, 29.337038)"><g/></g></g><g fill="#000000" fill-opacity="1"><g transform="translate(15.051521, 29.471493)"><g><path d="M 0.5 -1.34375 L 0.359375 0.03125 L 0.1875 0.015625 L 0.328125 -1.359375 Z M 0.5 -1.34375 "/></g></g></g><g fill="#000000" fill-opacity="1"><g transform="translate(15.929441, 29.564829)"><g><path d="M 1.21875 -1.375 L 1.21875 0 L 1.015625 0 L 0.3125 -1.109375 L 0.3125 0 L 0.140625 0 L 0.140625 -1.375 L 0.328125 -1.375 L 1.046875 -0.25 L 1.046875 -1.375 Z M 1.21875 -1.375 "/></g></g></g><g fill="#000000" fill-opacity="1"><g transform="translate(17.639009, 29.526227)"><g/></g></g><g fill="#000000" fill-opacity="1"><g transform="translate(18.51758, 29.439219)"><g><path d="M 0.171875 -0.03125 L -0.109375 -1.375 L 0.390625 -1.484375 C 0.566406 -1.515625 0.710938 -1.476562 0.828125 -1.375 C 0.953125 -1.28125 1.035156 -1.128906 1.078125 -0.921875 C 1.117188 -0.710938 1.101562 -0.535156 1.03125 -0.390625 C 0.96875 -0.253906 0.847656 -0.171875 0.671875 -0.140625 Z M 0.3125 -0.21875 L 0.609375 -0.296875 C 0.742188 -0.316406 0.835938 -0.375 0.890625 -0.46875 C 0.953125 -0.570312 0.960938 -0.710938 0.921875 -0.890625 C 0.890625 -1.054688 0.828125 -1.175781 0.734375 -1.25 C 0.640625 -1.320312 0.523438 -1.347656 0.390625 -1.328125 L 0.09375 -1.25 Z M 0.3125 -0.21875 "/></g></g></g><g fill="#000000" fill-opacity="1"><g transform="translate(20.211102, 29.061844)"><g><path d="M 0.765625 -0.9375 L 0.109375 -0.703125 L 0.3125 -0.109375 L 0.140625 -0.046875 L -0.3125 -1.34375 L -0.140625 -1.40625 L 0.046875 -0.84375 L 0.703125 -1.078125 L 0.515625 -1.640625 L 0.6875 -1.703125 L 1.140625 -0.40625 L 0.96875 -0.34375 Z M 0.765625 -0.9375 "/></g></g></g><g fill="#000000" fill-opacity="1"><g transform="translate(21.833394, 28.455645)"><g><path d="M 0.609375 -0.765625 L 0.125 -0.515625 L 0.1875 -0.09375 L 0.03125 -0.015625 L -0.171875 -1.453125 L 0.046875 -1.5625 L 1.078125 -0.5625 L 0.921875 -0.46875 Z M 0.5 -0.890625 L 0.015625 -1.34375 L 0.109375 -0.6875 Z M 0.5 -0.890625 "/></g></g></g><g fill="#000000" fill-opacity="1"><g transform="translate(23.269442, 27.692392)"><g><path d="M -0.015625 -0.59375 L 0.265625 -0.1875 L 0.109375 -0.078125 L -0.671875 -1.21875 L -0.515625 -1.328125 L -0.109375 -0.734375 L 0.046875 -1.703125 L 0.234375 -1.84375 L 0.09375 -1.046875 L 1.015625 -0.703125 L 0.84375 -0.578125 L 0.0625 -0.890625 Z M -0.015625 -0.59375 "/></g></g></g><g fill="#000000" fill-opacity="1"><g transform="translate(24.596013, 26.751645)"><g><path d="M 0.390625 -0.890625 L 0 -0.53125 L 0.15625 -0.140625 L 0.015625 -0.015625 L -0.53125 -1.375 L -0.359375 -1.53125 L 0.90625 -0.8125 L 0.765625 -0.6875 Z M 0.25 -0.984375 L -0.328125 -1.3125 L -0.078125 -0.6875 Z M 0.25 -0.984375 "/></g></g></g><g fill="#000000" fill-opacity="1"><g transform="translate(25.767679, 25.655594)"><g/></g></g><g fill="#000000" fill-opacity="1"><g transform="translate(26.366633, 25.00697)"><g><path d="M -0.46875 -0.484375 C -0.507812 -0.503906 -0.546875 -0.53125 -0.578125 -0.5625 C -0.609375 -0.59375 -0.640625 -0.625 -0.671875 -0.65625 C -0.703125 -0.6875 -0.726562 -0.722656 -0.75 -0.765625 C -0.78125 -0.816406 -0.796875 -0.867188 -0.796875 -0.921875 C -0.804688 -0.972656 -0.8125 -1.019531 -0.8125 -1.0625 C -0.8125 -1.113281 -0.800781 -1.164062 -0.78125 -1.21875 C -0.757812 -1.28125 -0.726562 -1.34375 -0.6875 -1.40625 C -0.507812 -1.632812 -0.285156 -1.679688 -0.015625 -1.546875 L -0.109375 -1.421875 C -0.210938 -1.460938 -0.296875 -1.472656 -0.359375 -1.453125 C -0.429688 -1.429688 -0.503906 -1.375 -0.578125 -1.28125 C -0.648438 -1.1875 -0.671875 -1.078125 -0.640625 -0.953125 C -0.609375 -0.835938 -0.519531 -0.726562 -0.375 -0.625 C -0.238281 -0.519531 -0.109375 -0.46875 0.015625 -0.46875 C 0.140625 -0.46875 0.242188 -0.519531 0.328125 -0.625 C 0.390625 -0.71875 0.414062 -0.804688 0.40625 -0.890625 C 0.40625 -0.984375 0.351562 -1.078125 0.25 -1.171875 L 0.34375 -1.3125 C 0.613281 -1.0625 0.648438 -0.800781 0.453125 -0.53125 C 0.410156 -0.46875 0.359375 -0.414062 0.296875 -0.375 C 0.242188 -0.34375 0.1875 -0.320312 0.125 -0.3125 C 0.0703125 -0.300781 0.0195312 -0.296875 -0.03125 -0.296875 C -0.0820312 -0.304688 -0.132812 -0.316406 -0.1875 -0.328125 C -0.25 -0.347656 -0.300781 -0.367188 -0.34375 -0.390625 C -0.382812 -0.421875 -0.425781 -0.453125 -0.46875 -0.484375 Z M -0.46875 -0.484375 "/></g></g></g><g fill="#000000" fill-opacity="1"><g transform="translate(27.356183, 23.612377)"><g><path d="M -1 -1.015625 L 0.1875 -0.3125 L 0.09375 -0.15625 L -1.09375 -0.859375 Z M -1 -1.015625 "/></g></g></g><g fill="#000000" fill-opacity="1"><g transform="translate(27.803309, 22.858374)"><g><path d="M -0.8125 -1.125 L 0.28125 -0.59375 L 0.203125 -0.4375 L -0.890625 -0.96875 L -1.078125 -0.578125 L -1.21875 -0.640625 L -0.75 -1.59375 L -0.609375 -1.53125 Z M -0.8125 -1.125 "/></g></g></g><g fill="#000000" fill-opacity="1"><g transform="translate(28.437817, 21.478702)"><g><path d="M -0.28125 -0.859375 L 0.21875 -0.6875 L 0.171875 -0.515625 L -0.328125 -0.6875 L -1.296875 -0.46875 L -1.234375 -0.65625 L -0.46875 -0.828125 L -0.984375 -1.421875 L -0.921875 -1.609375 Z M -0.28125 -0.859375 "/></g></g></g><g mask="url(#8963abbb83)"><g transform="matrix(1, 0, 0, 1, 35, 20)"><g clip-path="url(#8a3905f7a8)"><g fill="#000000" fill-opacity="1"><g transform="translate(1.067834, 9.317351)"><g><path d="M 4.609375 -1.53125 C 4.609375 -1.070312 4.460938 -0.703125 4.171875 -0.421875 C 3.878906 -0.140625 3.492188 0 3.015625 0 L 0.578125 0 L 0.578125 -5.40625 L 2.765625 -5.40625 C 3.015625 -5.40625 3.234375 -5.375 3.421875 -5.3125 C 3.617188 -5.25 3.773438 -5.171875 3.890625 -5.078125 C 4.003906 -4.984375 4.097656 -4.875 4.171875 -4.75 C 4.253906 -4.625 4.304688 -4.5 4.328125 -4.375 C 4.359375 -4.257812 4.375 -4.144531 4.375 -4.03125 C 4.375 -3.476562 4.125 -3.085938 3.625 -2.859375 C 3.96875 -2.722656 4.21875 -2.550781 4.375 -2.34375 C 4.53125 -2.132812 4.609375 -1.863281 4.609375 -1.53125 Z M 3.6875 -3.921875 C 3.6875 -4.097656 3.65625 -4.242188 3.59375 -4.359375 C 3.539062 -4.472656 3.460938 -4.5625 3.359375 -4.625 C 3.253906 -4.6875 3.140625 -4.726562 3.015625 -4.75 C 2.898438 -4.78125 2.765625 -4.796875 2.609375 -4.796875 L 1.28125 -4.796875 L 1.28125 -3.0625 L 2.609375 -3.0625 C 2.953125 -3.0625 3.21875 -3.128906 3.40625 -3.265625 C 3.59375 -3.398438 3.6875 -3.617188 3.6875 -3.921875 Z M 2.953125 -0.609375 C 3.140625 -0.609375 3.300781 -0.632812 3.4375 -0.6875 C 3.570312 -0.75 3.671875 -0.828125 3.734375 -0.921875 C 3.796875 -1.023438 3.84375 -1.125 3.875 -1.21875 C 3.90625 -1.320312 3.921875 -1.425781 3.921875 -1.53125 C 3.921875 -1.8125 3.835938 -2.035156 3.671875 -2.203125 C 3.503906 -2.378906 3.265625 -2.46875 2.953125 -2.46875 L 1.28125 -2.46875 L 1.28125 -0.609375 Z M 2.953125 -0.609375 "/></g></g></g><g fill="#000000" fill-opacity="1"><g transform="translate(7.168765, 9.317351)"><g><path d="M 2.015625 -3.984375 C 2.566406 -3.984375 3 -3.800781 3.3125 -3.4375 C 3.625 -3.070312 3.78125 -2.550781 3.78125 -1.875 C 3.78125 -1.238281 3.625 -0.738281 3.3125 -0.375 C 3 -0.0078125 2.570312 0.171875 2.03125 0.171875 C 1.476562 0.171875 1.046875 -0.0078125 0.734375 -0.375 C 0.421875 -0.75 0.265625 -1.257812 0.265625 -1.90625 C 0.265625 -2.5625 0.421875 -3.070312 0.734375 -3.4375 C 1.046875 -3.800781 1.472656 -3.984375 2.015625 -3.984375 Z M 2.828125 -3.015625 C 2.640625 -3.285156 2.367188 -3.421875 2.015625 -3.421875 C 1.671875 -3.421875 1.398438 -3.285156 1.203125 -3.015625 C 1.003906 -2.742188 0.90625 -2.375 0.90625 -1.90625 C 0.90625 -1.4375 1.003906 -1.066406 1.203125 -0.796875 C 1.398438 -0.535156 1.675781 -0.40625 2.03125 -0.40625 C 2.363281 -0.40625 2.628906 -0.535156 2.828125 -0.796875 C 3.023438 -1.066406 3.125 -1.429688 3.125 -1.890625 C 3.125 -2.367188 3.023438 -2.742188 2.828125 -3.015625 Z M 2.828125 -3.015625 "/></g></g></g><g fill="#000000" fill-opacity="1"><g transform="translate(12.446855, 9.317351)"><g><path d="M 2.015625 -3.984375 C 2.566406 -3.984375 3 -3.800781 3.3125 -3.4375 C 3.625 -3.070312 3.78125 -2.550781 3.78125 -1.875 C 3.78125 -1.238281 3.625 -0.738281 3.3125 -0.375 C 3 -0.0078125 2.570312 0.171875 2.03125 0.171875 C 1.476562 0.171875 1.046875 -0.0078125 0.734375 -0.375 C 0.421875 -0.75 0.265625 -1.257812 0.265625 -1.90625 C 0.265625 -2.5625 0.421875 -3.070312 0.734375 -3.4375 C 1.046875 -3.800781 1.472656 -3.984375 2.015625 -3.984375 Z M 2.828125 -3.015625 C 2.640625 -3.285156 2.367188 -3.421875 2.015625 -3.421875 C 1.671875 -3.421875 1.398438 -3.285156 1.203125 -3.015625 C 1.003906 -2.742188 0.90625 -2.375 0.90625 -1.90625 C 0.90625 -1.4375 1.003906 -1.066406 1.203125 -0.796875 C 1.398438 -0.535156 1.675781 -0.40625 2.03125 -0.40625 C 2.363281 -0.40625 2.628906 -0.535156 2.828125 -0.796875 C 3.023438 -1.066406 3.125 -1.429688 3.125 -1.890625 C 3.125 -2.367188 3.023438 -2.742188 2.828125 -3.015625 Z M 2.828125 -3.015625 "/></g></g></g><g fill="#000000" fill-opacity="1"><g transform="translate(17.724944, 9.317351)"><g><path d="M 1.046875 -5.40625 L 1.046875 -2.234375 L 2.6875 -3.875 L 3.484375 -3.875 L 2.125 -2.53125 L 3.71875 0 L 2.953125 0 L 1.640625 -2.109375 L 1.046875 -1.515625 L 1.046875 0 L 0.421875 0 L 0.421875 -5.40625 Z M 1.046875 -5.40625 "/></g></g></g><g fill="#000000" fill-opacity="1"><g transform="translate(22.591614, 9.317351)"><g><path d="M 0.90625 -1.15625 C 0.914062 -1.070312 0.929688 -0.992188 0.953125 -0.921875 C 0.972656 -0.859375 1.003906 -0.789062 1.046875 -0.71875 C 1.085938 -0.65625 1.140625 -0.597656 1.203125 -0.546875 C 1.265625 -0.503906 1.351562 -0.46875 1.46875 -0.4375 C 1.582031 -0.414062 1.710938 -0.40625 1.859375 -0.40625 C 2.117188 -0.40625 2.332031 -0.457031 2.5 -0.5625 C 2.664062 -0.675781 2.75 -0.828125 2.75 -1.015625 C 2.75 -1.148438 2.703125 -1.257812 2.609375 -1.34375 C 2.523438 -1.425781 2.375 -1.492188 2.15625 -1.546875 L 1.578125 -1.6875 C 1.117188 -1.800781 0.796875 -1.941406 0.609375 -2.109375 C 0.429688 -2.273438 0.34375 -2.507812 0.34375 -2.8125 C 0.34375 -3.164062 0.476562 -3.445312 0.75 -3.65625 C 1.019531 -3.875 1.378906 -3.984375 1.828125 -3.984375 C 2.285156 -3.984375 2.632812 -3.878906 2.875 -3.671875 C 3.113281 -3.472656 3.238281 -3.179688 3.25 -2.796875 L 2.59375 -2.796875 C 2.570312 -3.210938 2.3125 -3.421875 1.8125 -3.421875 C 1.5625 -3.421875 1.359375 -3.367188 1.203125 -3.265625 C 1.054688 -3.160156 0.984375 -3.015625 0.984375 -2.828125 C 0.984375 -2.703125 1.039062 -2.59375 1.15625 -2.5 C 1.269531 -2.414062 1.453125 -2.34375 1.703125 -2.28125 L 2.296875 -2.140625 C 2.679688 -2.046875 2.960938 -1.910156 3.140625 -1.734375 C 3.316406 -1.566406 3.40625 -1.34375 3.40625 -1.0625 C 3.40625 -0.6875 3.257812 -0.382812 2.96875 -0.15625 C 2.675781 0.0625 2.285156 0.171875 1.796875 0.171875 C 1.285156 0.171875 0.898438 0.0625 0.640625 -0.15625 C 0.390625 -0.375 0.257812 -0.707031 0.25 -1.15625 Z M 0.90625 -1.15625 "/></g></g></g><g fill="#000000" fill-opacity="1"><g transform="translate(27.458284, 9.317351)"><g/></g></g><g fill="#000000" fill-opacity="1"><g transform="translate(30.679272, 9.317351)"><g><path d="M 0.484375 -2.734375 C 0.492188 -2.929688 0.53125 -3.109375 0.59375 -3.265625 C 0.664062 -3.421875 0.75 -3.539062 0.84375 -3.625 C 0.9375 -3.71875 1.050781 -3.789062 1.1875 -3.84375 C 1.332031 -3.90625 1.472656 -3.941406 1.609375 -3.953125 C 1.742188 -3.972656 1.882812 -3.984375 2.03125 -3.984375 C 2.507812 -3.984375 2.875 -3.894531 3.125 -3.71875 C 3.375 -3.539062 3.5 -3.28125 3.5 -2.9375 L 3.5 -0.65625 C 3.5 -0.550781 3.523438 -0.472656 3.578125 -0.421875 C 3.640625 -0.367188 3.722656 -0.34375 3.828125 -0.34375 C 3.867188 -0.34375 3.910156 -0.347656 3.953125 -0.359375 L 3.953125 0.109375 C 3.796875 0.148438 3.65625 0.171875 3.53125 0.171875 C 3.332031 0.171875 3.179688 0.125 3.078125 0.03125 C 2.984375 -0.0625 2.925781 -0.207031 2.90625 -0.40625 C 2.6875 -0.195312 2.472656 -0.0507812 2.265625 0.03125 C 2.054688 0.125 1.828125 0.171875 1.578125 0.171875 C 1.191406 0.171875 0.882812 0.0664062 0.65625 -0.140625 C 0.425781 -0.347656 0.3125 -0.628906 0.3125 -0.984375 C 0.3125 -1.410156 0.460938 -1.71875 0.765625 -1.90625 C 0.972656 -2.03125 1.328125 -2.128906 1.828125 -2.203125 C 1.898438 -2.203125 2.035156 -2.21875 2.234375 -2.25 C 2.484375 -2.28125 2.65625 -2.328125 2.75 -2.390625 C 2.84375 -2.453125 2.890625 -2.550781 2.890625 -2.6875 L 2.890625 -2.84375 C 2.890625 -3.03125 2.8125 -3.171875 2.65625 -3.265625 C 2.507812 -3.367188 2.296875 -3.421875 2.015625 -3.421875 C 1.722656 -3.421875 1.503906 -3.363281 1.359375 -3.25 C 1.210938 -3.144531 1.128906 -2.972656 1.109375 -2.734375 Z M 1.71875 -0.375 C 2.0625 -0.375 2.34375 -0.460938 2.5625 -0.640625 C 2.78125 -0.816406 2.890625 -1.007812 2.890625 -1.21875 L 2.890625 -1.921875 C 2.773438 -1.867188 2.625 -1.828125 2.4375 -1.796875 C 2.257812 -1.765625 2.085938 -1.734375 1.921875 -1.703125 C 1.765625 -1.679688 1.609375 -1.644531 1.453125 -1.59375 C 1.304688 -1.550781 1.1875 -1.476562 1.09375 -1.375 C 1 -1.28125 0.953125 -1.148438 0.953125 -0.984375 C 0.953125 -0.796875 1.019531 -0.644531 1.15625 -0.53125 C 1.289062 -0.425781 1.476562 -0.375 1.71875 -0.375 Z M 1.71875 -0.375 "/></g></g></g><g fill="#000000" fill-opacity="1"><g transform="translate(35.957362, 9.317351)"><g><path d="M 0.515625 -3.875 L 1.09375 -3.875 L 1.09375 -3.234375 C 1.257812 -3.503906 1.441406 -3.695312 1.640625 -3.8125 C 1.835938 -3.925781 2.082031 -3.984375 2.375 -3.984375 C 2.75 -3.984375 3.046875 -3.890625 3.265625 -3.703125 C 3.492188 -3.515625 3.609375 -3.257812 3.609375 -2.9375 L 3.609375 0 L 2.984375 0 L 2.984375 -2.6875 C 2.984375 -2.925781 2.910156 -3.113281 2.765625 -3.25 C 2.628906 -3.382812 2.4375 -3.453125 2.1875 -3.453125 C 1.875 -3.453125 1.617188 -3.332031 1.421875 -3.09375 C 1.234375 -2.851562 1.140625 -2.535156 1.140625 -2.140625 L 1.140625 0 L 0.515625 0 Z M 0.515625 -3.875 "/></g></g></g><g fill="#000000" fill-opacity="1"><g transform="translate(41.235453, 9.317351)"><g><path d="M 3.65625 -5.40625 L 3.65625 0 L 3.125 0 L 3.125 -0.515625 C 2.957031 -0.273438 2.773438 -0.101562 2.578125 0 C 2.378906 0.113281 2.144531 0.171875 1.875 0.171875 C 1.351562 0.171875 0.941406 -0.015625 0.640625 -0.390625 C 0.335938 -0.773438 0.1875 -1.296875 0.1875 -1.953125 C 0.1875 -2.566406 0.335938 -3.054688 0.640625 -3.421875 C 0.941406 -3.796875 1.347656 -3.984375 1.859375 -3.984375 C 2.390625 -3.984375 2.785156 -3.785156 3.046875 -3.390625 L 3.046875 -5.40625 Z M 1.96875 -3.421875 C 1.625 -3.421875 1.347656 -3.28125 1.140625 -3 C 0.941406 -2.726562 0.84375 -2.363281 0.84375 -1.90625 C 0.84375 -1.457031 0.941406 -1.09375 1.140625 -0.8125 C 1.347656 -0.539062 1.625 -0.40625 1.96875 -0.40625 C 2.289062 -0.40625 2.550781 -0.539062 2.75 -0.8125 C 2.945312 -1.082031 3.046875 -1.441406 3.046875 -1.890625 C 3.046875 -2.359375 2.945312 -2.726562 2.75 -3 C 2.550781 -3.28125 2.289062 -3.421875 1.96875 -3.421875 Z M 1.96875 -3.421875 "/></g></g></g><g fill="#000000" fill-opacity="1"><g transform="translate(46.513544, 9.317351)"><g/></g></g><g fill="#000000" fill-opacity="1"><g transform="translate(49.734532, 9.317351)"><g><path d="M 1.359375 -2.453125 L 1.359375 -0.609375 L 4.546875 -0.609375 L 4.546875 0 L 0.671875 0 L 0.671875 -5.40625 L 4.40625 -5.40625 L 4.40625 -4.796875 L 1.359375 -4.796875 L 1.359375 -3.0625 L 4.296875 -3.0625 L 4.296875 -2.453125 Z M 1.359375 -2.453125 "/></g></g></g><g fill="#000000" fill-opacity="1"><g transform="translate(55.835463, 9.317351)"><g><path d="M 2.109375 -2.3125 L 2.109375 -1.78125 L 0.34375 -1.78125 L 0.34375 -2.3125 Z M 2.109375 -2.3125 "/></g></g></g><g fill="#000000" fill-opacity="1"><g transform="translate(59.459643, 9.317351)"><g><path d="M 4.609375 -1.53125 C 4.609375 -1.070312 4.460938 -0.703125 4.171875 -0.421875 C 3.878906 -0.140625 3.492188 0 3.015625 0 L 0.578125 0 L 0.578125 -5.40625 L 2.765625 -5.40625 C 3.015625 -5.40625 3.234375 -5.375 3.421875 -5.3125 C 3.617188 -5.25 3.773438 -5.171875 3.890625 -5.078125 C 4.003906 -4.984375 4.097656 -4.875 4.171875 -4.75 C 4.253906 -4.625 4.304688 -4.5 4.328125 -4.375 C 4.359375 -4.257812 4.375 -4.144531 4.375 -4.03125 C 4.375 -3.476562 4.125 -3.085938 3.625 -2.859375 C 3.96875 -2.722656 4.21875 -2.550781 4.375 -2.34375 C 4.53125 -2.132812 4.609375 -1.863281 4.609375 -1.53125 Z M 3.6875 -3.921875 C 3.6875 -4.097656 3.65625 -4.242188 3.59375 -4.359375 C 3.539062 -4.472656 3.460938 -4.5625 3.359375 -4.625 C 3.253906 -4.6875 3.140625 -4.726562 3.015625 -4.75 C 2.898438 -4.78125 2.765625 -4.796875 2.609375 -4.796875 L 1.28125 -4.796875 L 1.28125 -3.0625 L 2.609375 -3.0625 C 2.953125 -3.0625 3.21875 -3.128906 3.40625 -3.265625 C 3.59375 -3.398438 3.6875 -3.617188 3.6875 -3.921875 Z M 2.953125 -0.609375 C 3.140625 -0.609375 3.300781 -0.632812 3.4375 -0.6875 C 3.570312 -0.75 3.671875 -0.828125 3.734375 -0.921875 C 3.796875 -1.023438 3.84375 -1.125 3.875 -1.21875 C 3.90625 -1.320312 3.921875 -1.425781 3.921875 -1.53125 C 3.921875 -1.8125 3.835938 -2.035156 3.671875 -2.203125 C 3.503906 -2.378906 3.265625 -2.46875 2.953125 -2.46875 L 1.28125 -2.46875 L 1.28125 -0.609375 Z M 2.953125 -0.609375 "/></g></g></g><g fill="#000000" fill-opacity="1"><g transform="translate(65.560571, 9.317351)"><g><path d="M 2.015625 -3.984375 C 2.566406 -3.984375 3 -3.800781 3.3125 -3.4375 C 3.625 -3.070312 3.78125 -2.550781 3.78125 -1.875 C 3.78125 -1.238281 3.625 -0.738281 3.3125 -0.375 C 3 -0.0078125 2.570312 0.171875 2.03125 0.171875 C 1.476562 0.171875 1.046875 -0.0078125 0.734375 -0.375 C 0.421875 -0.75 0.265625 -1.257812 0.265625 -1.90625 C 0.265625 -2.5625 0.421875 -3.070312 0.734375 -3.4375 C 1.046875 -3.800781 1.472656 -3.984375 2.015625 -3.984375 Z M 2.828125 -3.015625 C 2.640625 -3.285156 2.367188 -3.421875 2.015625 -3.421875 C 1.671875 -3.421875 1.398438 -3.285156 1.203125 -3.015625 C 1.003906 -2.742188 0.90625 -2.375 0.90625 -1.90625 C 0.90625 -1.4375 1.003906 -1.066406 1.203125 -0.796875 C 1.398438 -0.535156 1.675781 -0.40625 2.03125 -0.40625 C 2.363281 -0.40625 2.628906 -0.535156 2.828125 -0.796875 C 3.023438 -1.066406 3.125 -1.429688 3.125 -1.890625 C 3.125 -2.367188 3.023438 -2.742188 2.828125 -3.015625 Z M 2.828125 -3.015625 "/></g></g></g><g fill="#000000" fill-opacity="1"><g transform="translate(70.838658, 9.317351)"><g><path d="M 2.015625 -3.984375 C 2.566406 -3.984375 3 -3.800781 3.3125 -3.4375 C 3.625 -3.070312 3.78125 -2.550781 3.78125 -1.875 C 3.78125 -1.238281 3.625 -0.738281 3.3125 -0.375 C 3 -0.0078125 2.570312 0.171875 2.03125 0.171875 C 1.476562 0.171875 1.046875 -0.0078125 0.734375 -0.375 C 0.421875 -0.75 0.265625 -1.257812 0.265625 -1.90625 C 0.265625 -2.5625 0.421875 -3.070312 0.734375 -3.4375 C 1.046875 -3.800781 1.472656 -3.984375 2.015625 -3.984375 Z M 2.828125 -3.015625 C 2.640625 -3.285156 2.367188 -3.421875 2.015625 -3.421875 C 1.671875 -3.421875 1.398438 -3.285156 1.203125 -3.015625 C 1.003906 -2.742188 0.90625 -2.375 0.90625 -1.90625 C 0.90625 -1.4375 1.003906 -1.066406 1.203125 -0.796875 C 1.398438 -0.535156 1.675781 -0.40625 2.03125 -0.40625 C 2.363281 -0.40625 2.628906 -0.535156 2.828125 -0.796875 C 3.023438 -1.066406 3.125 -1.429688 3.125 -1.890625 C 3.125 -2.367188 3.023438 -2.742188 2.828125 -3.015625 Z M 2.828125 -3.015625 "/></g></g></g><g fill="#000000" fill-opacity="1"><g transform="translate(76.116745, 9.317351)"><g><path d="M 1.046875 -5.40625 L 1.046875 -2.234375 L 2.6875 -3.875 L 3.484375 -3.875 L 2.125 -2.53125 L 3.71875 0 L 2.953125 0 L 1.640625 -2.109375 L 1.046875 -1.515625 L 1.046875 0 L 0.421875 0 L 0.421875 -5.40625 Z M 1.046875 -5.40625 "/></g></g></g><g fill="#000000" fill-opacity="1"><g transform="translate(80.983412, 9.317351)"><g><path d="M 0.90625 -1.15625 C 0.914062 -1.070312 0.929688 -0.992188 0.953125 -0.921875 C 0.972656 -0.859375 1.003906 -0.789062 1.046875 -0.71875 C 1.085938 -0.65625 1.140625 -0.597656 1.203125 -0.546875 C 1.265625 -0.503906 1.351562 -0.46875 1.46875 -0.4375 C 1.582031 -0.414062 1.710938 -0.40625 1.859375 -0.40625 C 2.117188 -0.40625 2.332031 -0.457031 2.5 -0.5625 C 2.664062 -0.675781 2.75 -0.828125 2.75 -1.015625 C 2.75 -1.148438 2.703125 -1.257812 2.609375 -1.34375 C 2.523438 -1.425781 2.375 -1.492188 2.15625 -1.546875 L 1.578125 -1.6875 C 1.117188 -1.800781 0.796875 -1.941406 0.609375 -2.109375 C 0.429688 -2.273438 0.34375 -2.507812 0.34375 -2.8125 C 0.34375 -3.164062 0.476562 -3.445312 0.75 -3.65625 C 1.019531 -3.875 1.378906 -3.984375 1.828125 -3.984375 C 2.285156 -3.984375 2.632812 -3.878906 2.875 -3.671875 C 3.113281 -3.472656 3.238281 -3.179688 3.25 -2.796875 L 2.59375 -2.796875 C 2.570312 -3.210938 2.3125 -3.421875 1.8125 -3.421875 C 1.5625 -3.421875 1.359375 -3.367188 1.203125 -3.265625 C 1.054688 -3.160156 0.984375 -3.015625 0.984375 -2.828125 C 0.984375 -2.703125 1.039062 -2.59375 1.15625 -2.5 C 1.269531 -2.414062 1.453125 -2.34375 1.703125 -2.28125 L 2.296875 -2.140625 C 2.679688 -2.046875 2.960938 -1.910156 3.140625 -1.734375 C 3.316406 -1.566406 3.40625 -1.34375 3.40625 -1.0625 C 3.40625 -0.6875 3.257812 -0.382812 2.96875 -0.15625 C 2.675781 0.0625 2.285156 0.171875 1.796875 0.171875 C 1.285156 0.171875 0.898438 0.0625 0.640625 -0.15625 C 0.390625 -0.375 0.257812 -0.707031 0.25 -1.15625 Z M 0.90625 -1.15625 "/></g></g></g></g></g></g><g mask="url(#1e3b1c7e40)"><g transform="matrix(1, 0, 0, 1, 35, 20)"><g clip-path="url(#382dfad11c)"><g clip-path="url(#d1f2f961ff)"><path fill="#231f20" d="M 0.707031 0.945312 L 107.601562 0.945312 L 107.601562 1.40625 L 0.707031 1.40625 Z M 0.707031 0.945312 " fill-opacity="1" fill-rule="nonzero"/></g></g></g></g><g fill="#000000" fill-opacity="1"><g transform="translate(35.333477, 16.560122)"><g><path d="M 7.640625 0.375 L 0.984375 0.375 L 0.984375 -10.953125 L 3.171875 -10.953125 L 3.171875 -1.65625 L 8.015625 -1.65625 L 8.015625 0.375 Z M 7.640625 0.375 "/></g></g></g><g fill="#000000" fill-opacity="1"><g transform="translate(45.421866, 16.560122)"><g><path d="M 0.984375 0 L 0.984375 -10.953125 L 3.171875 -10.953125 L 3.171875 0.375 L 0.984375 0.375 Z M 0.984375 0 "/></g></g></g><g fill="#000000" fill-opacity="1"><g transform="translate(51.946505, 16.560122)"><g><path d="M 1.3125 -10.921875 C 1.675781 -10.960938 2.117188 -11 2.640625 -11.03125 C 3.171875 -11.0625 3.78125 -11.078125 4.46875 -11.078125 C 5.851562 -11.078125 6.921875 -10.8125 7.671875 -10.28125 C 8.472656 -9.71875 8.875 -8.953125 8.875 -7.984375 C 8.875 -7.921875 8.867188 -7.859375 8.859375 -7.796875 C 8.859375 -7.734375 8.851562 -7.671875 8.84375 -7.609375 C 8.84375 -7.554688 8.835938 -7.5 8.828125 -7.4375 C 8.816406 -7.375 8.800781 -7.3125 8.78125 -7.25 C 8.769531 -7.195312 8.753906 -7.144531 8.734375 -7.09375 C 8.722656 -7.039062 8.707031 -6.984375 8.6875 -6.921875 C 8.664062 -6.867188 8.640625 -6.816406 8.609375 -6.765625 C 8.585938 -6.710938 8.5625 -6.660156 8.53125 -6.609375 C 8.507812 -6.566406 8.484375 -6.519531 8.453125 -6.46875 C 8.421875 -6.414062 8.390625 -6.367188 8.359375 -6.328125 C 8.160156 -6.078125 7.910156 -5.847656 7.609375 -5.640625 C 8.015625 -5.410156 8.34375 -5.144531 8.59375 -4.84375 C 9.007812 -4.351562 9.21875 -3.742188 9.21875 -3.015625 C 9.21875 -1.929688 8.796875 -1.066406 7.953125 -0.421875 C 7.117188 0.191406 5.9375 0.5 4.40625 0.5 C 3.78125 0.5 3.191406 0.484375 2.640625 0.453125 C 2.078125 0.429688 1.628906 0.394531 1.296875 0.34375 L 0.984375 0.28125 L 0.984375 -10.875 Z M 4.515625 -1.453125 C 4.691406 -1.453125 4.859375 -1.457031 5.015625 -1.46875 C 5.171875 -1.476562 5.316406 -1.492188 5.453125 -1.515625 C 5.585938 -1.546875 5.710938 -1.578125 5.828125 -1.609375 C 5.941406 -1.640625 6.046875 -1.675781 6.140625 -1.71875 C 6.242188 -1.769531 6.335938 -1.820312 6.421875 -1.875 C 6.617188 -2 6.765625 -2.144531 6.859375 -2.3125 C 6.953125 -2.488281 7 -2.707031 7 -2.96875 C 7 -3.4375 6.804688 -3.800781 6.421875 -4.0625 C 5.984375 -4.363281 5.347656 -4.515625 4.515625 -4.515625 L 3.171875 -4.515625 L 3.171875 -1.515625 C 3.597656 -1.472656 4.046875 -1.453125 4.515625 -1.453125 Z M 4.453125 -6.390625 C 5.171875 -6.390625 5.734375 -6.53125 6.140625 -6.8125 C 6.492188 -7.0625 6.671875 -7.390625 6.671875 -7.796875 C 6.671875 -8.234375 6.503906 -8.5625 6.171875 -8.78125 C 5.765625 -9.03125 5.191406 -9.15625 4.453125 -9.15625 C 4.378906 -9.15625 4.300781 -9.15625 4.21875 -9.15625 C 4.132812 -9.15625 4.054688 -9.148438 3.984375 -9.140625 C 3.921875 -9.140625 3.851562 -9.140625 3.78125 -9.140625 C 3.707031 -9.140625 3.632812 -9.140625 3.5625 -9.140625 C 3.519531 -9.128906 3.476562 -9.125 3.4375 -9.125 C 3.394531 -9.125 3.347656 -9.117188 3.296875 -9.109375 C 3.253906 -9.109375 3.210938 -9.109375 3.171875 -9.109375 L 3.171875 -6.390625 Z M 4.453125 -6.390625 "/></g></g></g><g fill="#000000" fill-opacity="1"><g transform="translate(63.831867, 16.560122)"><g><path d="M 7.171875 0.328125 L 5.859375 -2.53125 C 5.566406 -3.175781 5.203125 -3.628906 4.765625 -3.890625 C 4.628906 -3.972656 4.476562 -4.039062 4.3125 -4.09375 C 4.15625 -4.15625 3.976562 -4.203125 3.78125 -4.234375 C 3.59375 -4.265625 3.390625 -4.285156 3.171875 -4.296875 L 3.171875 0.375 L 0.984375 0.375 L 0.984375 -10.890625 L 1.328125 -10.921875 C 1.597656 -10.941406 1.863281 -10.960938 2.125 -10.984375 C 2.382812 -11.003906 2.632812 -11.019531 2.875 -11.03125 C 3.351562 -11.0625 3.878906 -11.078125 4.453125 -11.078125 C 5.128906 -11.078125 5.726562 -11.003906 6.25 -10.859375 C 6.789062 -10.710938 7.234375 -10.5 7.578125 -10.21875 C 7.953125 -9.925781 8.234375 -9.582031 8.421875 -9.1875 C 8.617188 -8.789062 8.71875 -8.359375 8.71875 -7.890625 C 8.71875 -7.054688 8.460938 -6.375 7.953125 -5.84375 C 7.628906 -5.507812 7.207031 -5.234375 6.6875 -5.015625 C 6.769531 -4.953125 6.84375 -4.890625 6.90625 -4.828125 C 6.976562 -4.773438 7.039062 -4.707031 7.09375 -4.625 C 7.1875 -4.53125 7.273438 -4.429688 7.359375 -4.328125 C 7.441406 -4.222656 7.519531 -4.101562 7.59375 -3.96875 C 7.75 -3.726562 7.90625 -3.429688 8.0625 -3.078125 L 9.21875 -0.625 L 9.375 -0.265625 L 9.03125 -0.109375 L 7.6875 0.53125 L 7.34375 0.6875 Z M 4.453125 -9.109375 C 4.285156 -9.109375 4.125 -9.109375 3.96875 -9.109375 C 3.820312 -9.109375 3.679688 -9.101562 3.546875 -9.09375 C 3.503906 -9.09375 3.457031 -9.085938 3.40625 -9.078125 C 3.363281 -9.078125 3.320312 -9.078125 3.28125 -9.078125 C 3.238281 -9.078125 3.203125 -9.078125 3.171875 -9.078125 L 3.171875 -6.25 L 4.453125 -6.25 C 5.097656 -6.25 5.617188 -6.382812 6.015625 -6.65625 C 6.359375 -6.914062 6.53125 -7.28125 6.53125 -7.75 C 6.53125 -7.9375 6.488281 -8.109375 6.40625 -8.265625 C 6.332031 -8.421875 6.207031 -8.566406 6.03125 -8.703125 C 5.863281 -8.835938 5.648438 -8.9375 5.390625 -9 C 5.128906 -9.070312 4.816406 -9.109375 4.453125 -9.109375 Z M 4.453125 -9.109375 "/></g></g></g><g fill="#000000" fill-opacity="1"><g transform="translate(75.520914, 16.560122)"><g><path d="M 0.375 -5.296875 C 0.375 -6.117188 0.492188 -6.878906 0.734375 -7.578125 C 0.984375 -8.296875 1.335938 -8.914062 1.796875 -9.4375 C 2.265625 -9.976562 2.828125 -10.394531 3.484375 -10.6875 C 3.816406 -10.832031 4.171875 -10.941406 4.546875 -11.015625 C 4.929688 -11.097656 5.328125 -11.140625 5.734375 -11.140625 C 6.148438 -11.140625 6.546875 -11.097656 6.921875 -11.015625 C 7.304688 -10.941406 7.664062 -10.828125 8 -10.671875 C 8.320312 -10.515625 8.625 -10.332031 8.90625 -10.125 C 9.195312 -9.914062 9.457031 -9.671875 9.6875 -9.390625 C 10.144531 -8.867188 10.503906 -8.253906 10.765625 -7.546875 C 11.003906 -6.847656 11.125 -6.097656 11.125 -5.296875 C 11.125 -4.503906 11.003906 -3.753906 10.765625 -3.046875 C 10.679688 -2.816406 10.582031 -2.59375 10.46875 -2.375 C 10.363281 -2.15625 10.242188 -1.945312 10.109375 -1.75 C 9.984375 -1.550781 9.847656 -1.359375 9.703125 -1.171875 C 9.472656 -0.898438 9.210938 -0.660156 8.921875 -0.453125 C 8.628906 -0.242188 8.328125 -0.0625 8.015625 0.09375 C 7.347656 0.40625 6.585938 0.5625 5.734375 0.5625 C 4.890625 0.5625 4.132812 0.40625 3.46875 0.09375 C 3.3125 0.0078125 3.15625 -0.0703125 3 -0.15625 C 2.851562 -0.25 2.707031 -0.347656 2.5625 -0.453125 C 2.425781 -0.566406 2.289062 -0.679688 2.15625 -0.796875 C 2.03125 -0.921875 1.910156 -1.046875 1.796875 -1.171875 C 1.335938 -1.710938 0.984375 -2.335938 0.734375 -3.046875 C 0.492188 -3.753906 0.375 -4.503906 0.375 -5.296875 Z M 2.59375 -5.296875 C 2.59375 -5.046875 2.609375 -4.796875 2.640625 -4.546875 C 2.679688 -4.304688 2.738281 -4.066406 2.8125 -3.828125 C 2.894531 -3.585938 2.984375 -3.363281 3.078125 -3.15625 C 3.179688 -2.957031 3.300781 -2.765625 3.4375 -2.578125 C 3.476562 -2.523438 3.523438 -2.472656 3.578125 -2.421875 C 3.628906 -2.367188 3.679688 -2.316406 3.734375 -2.265625 C 3.785156 -2.210938 3.835938 -2.160156 3.890625 -2.109375 C 3.941406 -2.066406 4 -2.023438 4.0625 -1.984375 C 4.125 -1.941406 4.1875 -1.898438 4.25 -1.859375 C 4.3125 -1.816406 4.367188 -1.773438 4.421875 -1.734375 C 4.804688 -1.535156 5.242188 -1.4375 5.734375 -1.4375 C 5.921875 -1.4375 6.09375 -1.445312 6.25 -1.46875 C 6.414062 -1.488281 6.566406 -1.519531 6.703125 -1.5625 C 6.847656 -1.601562 6.976562 -1.65625 7.09375 -1.71875 C 7.488281 -1.914062 7.816406 -2.179688 8.078125 -2.515625 C 8.171875 -2.617188 8.253906 -2.734375 8.328125 -2.859375 C 8.398438 -2.984375 8.460938 -3.117188 8.515625 -3.265625 C 8.578125 -3.410156 8.632812 -3.5625 8.6875 -3.71875 C 8.832031 -4.207031 8.90625 -4.734375 8.90625 -5.296875 C 8.90625 -5.804688 8.828125 -6.289062 8.671875 -6.75 C 8.535156 -7.21875 8.320312 -7.632812 8.03125 -8 C 7.757812 -8.34375 7.4375 -8.625 7.0625 -8.84375 C 6.675781 -9.039062 6.234375 -9.140625 5.734375 -9.140625 C 5.617188 -9.140625 5.5 -9.132812 5.375 -9.125 C 5.257812 -9.113281 5.144531 -9.09375 5.03125 -9.0625 C 4.914062 -9.039062 4.804688 -9.007812 4.703125 -8.96875 C 4.609375 -8.9375 4.515625 -8.898438 4.421875 -8.859375 C 4.222656 -8.765625 4.039062 -8.648438 3.875 -8.515625 C 3.71875 -8.390625 3.570312 -8.238281 3.4375 -8.0625 C 3.164062 -7.71875 2.957031 -7.316406 2.8125 -6.859375 C 2.664062 -6.378906 2.59375 -5.859375 2.59375 -5.296875 Z M 2.59375 -5.296875 "/></g></g></g><g fill="#000000" fill-opacity="1"><g transform="translate(89.384453, 16.560122)"><g/></g></g><g fill="#000000" fill-opacity="1"><g transform="translate(96.286611, 16.560122)"><g><path d="M 2.59375 -5.296875 C 2.59375 -5.097656 2.597656 -4.90625 2.609375 -4.71875 C 2.628906 -4.53125 2.65625 -4.347656 2.6875 -4.171875 C 2.726562 -4.003906 2.773438 -3.84375 2.828125 -3.6875 C 2.972656 -3.207031 3.179688 -2.804688 3.453125 -2.484375 C 3.546875 -2.367188 3.640625 -2.265625 3.734375 -2.171875 C 3.835938 -2.078125 3.941406 -1.988281 4.046875 -1.90625 C 4.160156 -1.832031 4.273438 -1.765625 4.390625 -1.703125 C 4.753906 -1.535156 5.15625 -1.453125 5.59375 -1.453125 C 6.039062 -1.453125 6.425781 -1.503906 6.75 -1.609375 C 7.09375 -1.710938 7.421875 -1.863281 7.734375 -2.0625 L 8.125 -2.28125 L 8.28125 -1.859375 L 8.71875 -0.671875 L 8.84375 -0.34375 L 8.546875 -0.203125 C 8.148438 0.015625 7.695312 0.195312 7.1875 0.34375 C 6.675781 0.488281 6.085938 0.5625 5.421875 0.5625 C 4.679688 0.5625 4 0.425781 3.375 0.15625 C 2.757812 -0.113281 2.222656 -0.507812 1.765625 -1.03125 C 1.328125 -1.53125 0.984375 -2.140625 0.734375 -2.859375 C 0.492188 -3.566406 0.375 -4.363281 0.375 -5.25 C 0.375 -6.09375 0.492188 -6.867188 0.734375 -7.578125 C 0.984375 -8.304688 1.332031 -8.929688 1.78125 -9.453125 C 2.25 -9.992188 2.800781 -10.410156 3.4375 -10.703125 C 3.757812 -10.835938 4.101562 -10.941406 4.46875 -11.015625 C 4.832031 -11.097656 5.210938 -11.140625 5.609375 -11.140625 C 6.148438 -11.140625 6.640625 -11.085938 7.078125 -10.984375 C 7.503906 -10.878906 7.914062 -10.738281 8.3125 -10.5625 L 8.609375 -10.40625 L 8.5 -10.078125 L 8.0625 -8.875 L 7.921875 -8.46875 L 7.546875 -8.65625 C 7.242188 -8.8125 6.941406 -8.925781 6.640625 -9 C 6.546875 -9.03125 6.445312 -9.050781 6.34375 -9.0625 C 6.238281 -9.082031 6.117188 -9.097656 5.984375 -9.109375 C 5.859375 -9.117188 5.726562 -9.125 5.59375 -9.125 C 5.375 -9.125 5.164062 -9.101562 4.96875 -9.0625 C 4.769531 -9.019531 4.578125 -8.957031 4.390625 -8.875 C 4.210938 -8.800781 4.046875 -8.703125 3.890625 -8.578125 C 3.734375 -8.460938 3.585938 -8.320312 3.453125 -8.15625 C 3.328125 -8 3.210938 -7.820312 3.109375 -7.625 C 3.003906 -7.425781 2.910156 -7.207031 2.828125 -6.96875 C 2.671875 -6.476562 2.59375 -5.921875 2.59375 -5.296875 Z M 2.59375 -5.296875 "/></g></g></g><g fill="#000000" fill-opacity="1"><g transform="translate(107.628354, 16.560122)"><g><path d="M 1.359375 -10.953125 L 8.078125 -10.953125 L 8.078125 -8.953125 L 3.171875 -8.953125 L 3.171875 -6.5 L 7.40625 -6.5 L 7.40625 -4.53125 L 3.171875 -4.53125 L 3.171875 -1.609375 L 8.078125 -1.609375 L 8.078125 0.375 L 0.984375 0.375 L 0.984375 -10.953125 Z M 1.359375 -10.953125 "/></g></g></g><g fill="#000000" fill-opacity="1"><g transform="translate(118.381164, 16.560122)"><g><path d="M 3.09375 -7.234375 L 3.09375 0.375 L 0.984375 0.375 L 0.984375 -10.953125 L 3.484375 -10.953125 L 3.59375 -10.765625 L 7.546875 -3.296875 L 7.546875 -10.953125 L 9.671875 -10.953125 L 9.671875 0.375 L 7.1875 0.375 L 7.09375 0.1875 Z M 3.09375 -7.234375 "/></g></g></g><g fill="#000000" fill-opacity="1"><g transform="translate(131.399064, 16.560122)"><g><path d="M 0.15625 -10.953125 L 8.46875 -10.953125 L 8.46875 -8.921875 L 5.21875 -8.921875 L 5.21875 0.375 L 3.015625 0.375 L 3.015625 -8.921875 L -0.234375 -8.921875 L -0.234375 -10.953125 Z M 0.15625 -10.953125 "/></g></g></g><g fill="#000000" fill-opacity="1"><g transform="translate(142.000871, 16.560122)"><g><path d="M 1.359375 -10.953125 L 8.078125 -10.953125 L 8.078125 -8.953125 L 3.171875 -8.953125 L 3.171875 -6.5 L 7.40625 -6.5 L 7.40625 -4.53125 L 3.171875 -4.53125 L 3.171875 -1.609375 L 8.078125 -1.609375 L 8.078125 0.375 L 0.984375 0.375 L 0.984375 -10.953125 Z M 1.359375 -10.953125 "/></g></g></g><g fill="#000000" fill-opacity="1"><g transform="translate(152.753681, 16.560122)"><g><path d="M 7.171875 0.328125 L 5.859375 -2.53125 C 5.566406 -3.175781 5.203125 -3.628906 4.765625 -3.890625 C 4.628906 -3.972656 4.476562 -4.039062 4.3125 -4.09375 C 4.15625 -4.15625 3.976562 -4.203125 3.78125 -4.234375 C 3.59375 -4.265625 3.390625 -4.285156 3.171875 -4.296875 L 3.171875 0.375 L 0.984375 0.375 L 0.984375 -10.890625 L 1.328125 -10.921875 C 1.597656 -10.941406 1.863281 -10.960938 2.125 -10.984375 C 2.382812 -11.003906 2.632812 -11.019531 2.875 -11.03125 C 3.351562 -11.0625 3.878906 -11.078125 4.453125 -11.078125 C 5.128906 -11.078125 5.726562 -11.003906 6.25 -10.859375 C 6.789062 -10.710938 7.234375 -10.5 7.578125 -10.21875 C 7.953125 -9.925781 8.234375 -9.582031 8.421875 -9.1875 C 8.617188 -8.789062 8.71875 -8.359375 8.71875 -7.890625 C 8.71875 -7.054688 8.460938 -6.375 7.953125 -5.84375 C 7.628906 -5.507812 7.207031 -5.234375 6.6875 -5.015625 C 6.769531 -4.953125 6.84375 -4.890625 6.90625 -4.828125 C 6.976562 -4.773438 7.039062 -4.707031 7.09375 -4.625 C 7.1875 -4.53125 7.273438 -4.429688 7.359375 -4.328125 C 7.441406 -4.222656 7.519531 -4.101562 7.59375 -3.96875 C 7.75 -3.726562 7.90625 -3.429688 8.0625 -3.078125 L 9.21875 -0.625 L 9.375 -0.265625 L 9.03125 -0.109375 L 7.6875 0.53125 L 7.34375 0.6875 Z M 4.453125 -9.109375 C 4.285156 -9.109375 4.125 -9.109375 3.96875 -9.109375 C 3.820312 -9.109375 3.679688 -9.101562 3.546875 -9.09375 C 3.503906 -9.09375 3.457031 -9.085938 3.40625 -9.078125 C 3.363281 -9.078125 3.320312 -9.078125 3.28125 -9.078125 C 3.238281 -9.078125 3.203125 -9.078125 3.171875 -9.078125 L 3.171875 -6.25 L 4.453125 -6.25 C 5.097656 -6.25 5.617188 -6.382812 6.015625 -6.65625 C 6.359375 -6.914062 6.53125 -7.28125 6.53125 -7.75 C 6.53125 -7.9375 6.488281 -8.109375 6.40625 -8.265625 C 6.332031 -8.421875 6.207031 -8.566406 6.03125 -8.703125 C 5.863281 -8.835938 5.648438 -8.9375 5.390625 -9 C 5.128906 -9.070312 4.816406 -9.109375 4.453125 -9.109375 Z M 4.453125 -9.109375 "/></g></g></g></svg>